<svg width="360" height="620" viewBox="0 0 360 620" fill="none" xmlns="http://www.w3.org/2000/svg" style="max-width:100%;height:auto">
<path d="M192.202 302.244C229.682 335.18 242.175 357.895 242.175 393.672C242.175 426.608 229.114 453.866 199.584 481.693C185.388 495.321 176.869 514.629 176.869 536.208C176.869 578.23 210.942 612.303 252.965 612.303C294.987 612.303 329.06 578.23 329.06 536.208C329.06 514.629 320.542 495.321 306.345 481.693C277.383 453.866 263.754 426.608 263.754 393.672C263.754 357.895 276.248 335.749 313.727 302.244C335.307 284.64 349.503 257.381 349.503 227.284C349.503 173.904 306.345 130.746 252.965 130.746C199.584 130.746 156.426 173.904 156.426 227.284C156.426 257.381 170.623 284.072 192.202 302.244Z" fill="url(#paint0_linear_323_2187)"/>
<path d="M163.815 318.712C126.335 285.775 113.842 263.061 113.842 227.284C113.842 194.347 126.903 167.089 155.864 139.263C170.062 125.635 178.579 106.327 178.579 84.7476C179.148 42.7249 145.075 8.6524 103.052 8.6524C61.0296 8.6524 26.3893 42.7249 26.3893 84.7476C26.3893 106.327 35.4753 125.067 49.1043 139.263C78.0659 167.089 91.127 194.347 91.127 227.284C91.127 263.061 78.6338 285.207 41.154 318.712C20.1427 336.316 6.51367 363.006 6.51367 393.672C6.51367 447.052 49.6722 490.21 103.052 490.21C156.433 490.21 199.591 447.052 199.591 393.672C199.024 363.006 185.394 336.316 163.815 318.712Z" fill="url(#paint1_linear_323_2187)"/>
<defs>
<linearGradient id="paint0_linear_323_2187" x1="252.965" y1="130.746" x2="252.965" y2="612.303" gradientUnits="userSpaceOnUse">
<stop stop-color="#8117EE"/>
<stop offset="1" stop-color="#1F97D4"/>
</linearGradient>
<linearGradient id="paint1_linear_323_2187" x1="103.052" y1="62" x2="103.052" y2="418" gradientUnits="userSpaceOnUse">
<stop stop-color="#8117EE"/>
<stop offset="1" stop-color="#1F97D4"/>
</linearGradient>
</defs>
</svg>
