<svg width="802" height="232" viewBox="0 0 268 63" fill="none" xmlns="http://www.w3.org/2000/svg" style="max-width: 100%;">
<path d="M59.0713 54.6377C59.1312 54.6977 59.1312 54.6977 59.1312 54.7576V61.5311C59.1312 61.591 59.1312 61.651 59.0713 61.651C59.0113 61.651 58.9514 61.7109 58.9514 61.7109C58.8915 61.7109 58.8315 61.7109 58.7716 61.651C58.7116 61.591 58.7116 61.5311 58.7116 61.5311V55.417L56.0742 59.4331C56.0142 59.4931 56.0142 59.4931 55.9543 59.4931C55.8943 59.4931 55.8344 59.4331 55.7745 59.4331L53.137 55.417V61.5311C53.137 61.591 53.137 61.651 53.0771 61.651C53.0171 61.651 52.9572 61.7109 52.9572 61.7109C52.8972 61.7109 52.8373 61.7109 52.8373 61.651C52.8373 61.591 52.7773 61.5311 52.7773 61.5311V54.7576C52.7773 54.6977 52.7773 54.6377 52.8373 54.6377C52.8972 54.6377 52.8972 54.5778 52.9572 54.5778C53.0771 54.5778 53.137 54.6377 53.137 54.6977L55.9543 58.9536L58.7716 54.6977C58.8315 54.6377 58.8915 54.5778 58.9514 54.5778C59.0113 54.5778 59.0113 54.6377 59.0713 54.6377Z" fill="#ffffff"/>
<path d="M68.182 56.6758C68.2419 56.7357 68.2419 56.7957 68.2419 56.7957V61.4712C68.2419 61.5311 68.2419 61.5911 68.182 61.5911C68.122 61.5911 68.0621 61.651 68.0621 61.651C68.0021 61.651 67.9422 61.651 67.9422 61.5911C67.9422 61.5311 67.8823 61.4712 67.8823 61.4712V60.572C67.7024 60.9317 67.4627 61.2314 67.103 61.4712C66.7433 61.7109 66.3837 61.8308 65.9042 61.8308C65.4246 61.8308 65.065 61.7109 64.7053 61.4712C64.3457 61.2314 64.0459 60.9317 63.8661 60.5121C63.6863 60.0925 63.5664 59.613 63.5664 59.1334C63.5664 58.6539 63.6863 58.1744 63.8661 57.7548C64.0459 57.3352 64.3457 57.0354 64.7053 56.7957C65.065 56.5559 65.4846 56.436 65.9042 56.436C66.3238 56.436 66.7433 56.5559 67.103 56.7957C67.4627 57.0354 67.7024 57.3352 67.8823 57.7548V56.8556C67.8823 56.7957 67.8823 56.7357 67.9422 56.7357C68.0021 56.7357 68.0621 56.6758 68.0621 56.6758C68.0621 56.6758 68.122 56.6758 68.182 56.6758ZM66.8632 61.1715C67.1629 60.9916 67.4027 60.6919 67.5825 60.3323C67.7624 59.9726 67.8223 59.613 67.8223 59.1334C67.8223 58.6539 67.7624 58.3542 67.5825 57.9945C67.4027 57.6349 67.1629 57.3951 66.8632 57.1553C66.5635 56.9156 66.2039 56.8556 65.8442 56.8556C65.4846 56.8556 65.1249 56.9755 64.8252 57.1553C64.5255 57.3352 64.2857 57.6349 64.1059 57.9346C63.9261 58.2942 63.8661 58.6539 63.8661 59.1334C63.8661 59.613 63.9261 59.9726 64.1059 60.3323C64.2857 60.6919 64.5255 60.9916 64.8252 61.1715C65.1249 61.3513 65.4846 61.4712 65.8442 61.4712C66.2039 61.4712 66.5635 61.3513 66.8632 61.1715Z" fill="#ffffff"/>
<path d="M76.8136 61.5311C76.8136 61.5911 76.8136 61.651 76.7537 61.651C76.6937 61.651 76.6338 61.7109 76.6338 61.7109C76.5738 61.7109 76.5139 61.7109 76.454 61.651L74.0563 59.0735L73.2171 59.7928V61.4712C73.2171 61.5311 73.2171 61.5911 73.1571 61.5911C73.0972 61.5911 73.0372 61.651 73.0372 61.651C73.0372 61.651 72.9174 61.651 72.9174 61.5911C72.9174 61.5311 72.8574 61.4712 72.8574 61.4712V54.2781C72.8574 54.2181 72.8574 54.1582 72.9174 54.1582C72.9773 54.1582 73.0372 54.0983 73.0372 54.0983C73.0372 54.0983 73.1571 54.0983 73.1571 54.1582C73.1571 54.2181 73.2171 54.2781 73.2171 54.2781V59.2533L76.454 56.5559C76.5139 56.496 76.5139 56.496 76.5738 56.496C76.6338 56.496 76.6937 56.496 76.6937 56.5559C76.6937 56.6158 76.7537 56.6758 76.7537 56.7357C76.7537 56.7957 76.7537 56.8556 76.6937 56.9156L74.356 58.8337L76.7537 61.3513C76.8136 61.4712 76.8136 61.4712 76.8136 61.5311Z" fill="#ffffff"/>
<path d="M84.9066 60.572C84.9665 60.632 84.9665 60.632 84.9665 60.6919C84.9665 60.7519 84.9665 60.8118 84.9066 60.8118C84.6668 61.1115 84.427 61.3513 84.0674 61.5311C83.7077 61.7109 83.3481 61.8308 82.9884 61.8308C82.4489 61.8308 82.0293 61.7109 81.6098 61.4712C81.1902 61.2314 80.8905 60.9317 80.6507 60.5121C80.4109 60.0925 80.291 59.6729 80.291 59.1334C80.291 58.5939 80.4109 58.1144 80.5907 57.6948C80.7706 57.2752 81.0703 56.9755 81.4299 56.7357C81.7896 56.496 82.1492 56.3761 82.5688 56.3761C82.9884 56.3761 83.3481 56.496 83.7077 56.6158C84.0674 56.7957 84.3671 57.0354 84.5469 57.3951C84.7867 57.7547 84.9066 58.1743 84.9066 58.7138C84.9066 58.7738 84.9066 58.8337 84.8466 58.8337C84.7867 58.8936 84.7867 58.8936 84.7267 58.8936H80.7106V59.0135C80.7106 59.4331 80.7706 59.7928 80.9504 60.1524C81.1302 60.5121 81.37 60.8118 81.7296 60.9916C82.0893 61.1715 82.4489 61.2913 82.9285 61.2913C83.2881 61.2913 83.5878 61.2314 83.8876 61.0516C84.1873 60.8717 84.427 60.6919 84.5469 60.4521C84.6069 60.3922 84.6668 60.3323 84.7267 60.3323C84.8466 60.5121 84.8466 60.572 84.9066 60.572ZM81.9095 57.0954C81.6697 57.2153 81.4299 57.455 81.1902 57.6948C80.9504 57.9346 80.8305 58.2942 80.7706 58.6539H84.5469V58.534C84.487 58.1743 84.427 57.8746 84.1873 57.6349C84.0074 57.3951 83.7677 57.2153 83.468 57.0954C83.1683 56.9755 82.9285 56.9156 82.6288 56.9156C82.4489 56.8556 82.1492 56.9755 81.9095 57.0954Z" fill="#ffffff"/>
<path d="M98.7532 56.5559C98.8132 56.6158 98.8132 56.6758 98.8132 56.6758V61.2314C98.8132 61.7109 98.6933 62.1905 98.5134 62.5501C98.3336 62.9098 98.0339 63.2095 97.6743 63.4493C97.3146 63.689 96.895 63.749 96.4155 63.749C96.1158 63.749 95.8161 63.689 95.5763 63.6291C95.3365 63.5692 95.0967 63.4493 94.9169 63.3294C94.797 63.2694 94.7371 63.1496 94.797 63.0297C94.857 62.9697 94.9169 62.9098 94.9769 62.9098C95.0368 62.9098 95.0368 62.9098 95.0368 62.9697C95.2166 63.0896 95.3965 63.1496 95.6362 63.2095C95.876 63.2694 96.1158 63.3294 96.3555 63.3294C96.7152 63.3294 97.0748 63.2095 97.3746 63.0297C97.6743 62.8498 97.914 62.6101 98.0939 62.2504C98.2737 61.8908 98.3336 61.5311 98.3336 61.1115V60.632C98.1538 60.9317 97.914 61.1715 97.5544 61.4112C97.1947 61.5911 96.8351 61.7109 96.4754 61.7109C95.876 61.7109 95.3964 61.5311 95.0967 61.1715C94.797 60.8118 94.6172 60.3323 94.6172 59.7328V56.5559C94.6172 56.496 94.6172 56.436 94.6771 56.436C94.7371 56.436 94.7371 56.3761 94.797 56.3761C94.857 56.3761 94.9169 56.3761 94.9169 56.436C94.9169 56.496 94.9769 56.5559 94.9769 56.5559V59.7328C94.9769 60.8118 95.4564 61.3513 96.4155 61.3513C96.7152 61.3513 97.0149 61.2913 97.2546 61.1115C97.5544 60.9317 97.7941 60.7519 97.914 60.5121C98.0339 60.2723 98.1538 60.0325 98.1538 59.7328V56.5559C98.1538 56.496 98.1538 56.436 98.2137 56.436C98.2737 56.436 98.2737 56.3761 98.3336 56.3761C98.3936 56.3761 98.7532 56.496 98.7532 56.5559Z" fill="#ffffff"/>
<path d="M107.685 60.572C107.446 60.9916 107.146 61.2913 106.786 61.5311C106.426 61.7709 105.947 61.8908 105.527 61.8908C105.108 61.8908 104.628 61.7709 104.269 61.5311C103.909 61.2913 103.609 60.9916 103.369 60.572C103.13 60.1524 103.01 59.7328 103.01 59.1934C103.01 58.6539 103.13 58.2343 103.369 57.8147C103.609 57.3951 103.909 57.0954 104.269 56.8556C104.628 56.6158 105.108 56.496 105.587 56.496C106.067 56.496 106.486 56.6158 106.846 56.8556C107.206 57.0954 107.505 57.3951 107.745 57.8147C107.985 58.2343 108.105 58.6539 108.105 59.1934C108.105 59.7328 107.925 60.1524 107.685 60.572ZM107.326 57.9945C107.146 57.6349 106.906 57.3951 106.546 57.1553C106.187 56.9155 105.887 56.8556 105.467 56.8556C105.048 56.8556 104.688 56.9755 104.388 57.1553C104.089 57.3352 103.789 57.6349 103.609 57.9945C103.429 58.3542 103.309 58.7138 103.309 59.1934C103.309 59.6729 103.369 60.0326 103.609 60.3323C103.789 60.6919 104.029 60.9317 104.388 61.1715C104.748 61.4112 105.048 61.4712 105.467 61.4712C105.887 61.4712 106.247 61.3513 106.546 61.1715C106.846 60.9916 107.086 60.6919 107.326 60.3323C107.565 59.9726 107.565 59.613 107.565 59.1334C107.565 58.6539 107.505 58.3542 107.326 57.9945Z" fill="#ffffff"/>
<path d="M116.196 56.6758C116.256 56.7357 116.256 56.7957 116.256 56.7957V59.7928C116.256 60.4522 116.076 60.9317 115.716 61.2913C115.357 61.651 114.877 61.7709 114.218 61.7709C113.558 61.7709 113.079 61.5911 112.719 61.2913C112.36 60.9317 112.18 60.4522 112.18 59.7928V56.7957C112.18 56.7357 112.18 56.6758 112.24 56.6758C112.3 56.6758 112.3 56.6158 112.36 56.6158C112.419 56.6158 112.479 56.6158 112.479 56.6758C112.479 56.7357 112.539 56.7957 112.539 56.7957V59.7928C112.539 60.3323 112.659 60.6919 112.959 60.9916C113.259 61.2913 113.618 61.4112 114.158 61.4112C114.697 61.4112 115.057 61.2913 115.357 60.9916C115.656 60.6919 115.776 60.3323 115.776 59.7928V56.7957C115.776 56.7357 115.776 56.6758 115.836 56.6758C115.896 56.6758 115.896 56.6158 115.956 56.6158C116.016 56.6158 116.136 56.6758 116.196 56.6758Z" fill="#ffffff"/>
<path d="M123.569 56.7357C123.569 56.7957 123.569 56.8556 123.509 56.9156C123.449 56.9755 123.449 56.9755 123.389 56.9755C123.389 56.9755 123.329 56.9755 123.269 56.9156C123.209 56.8556 123.09 56.8556 123.03 56.8556C122.73 56.8556 122.49 56.9755 122.19 57.2153C121.891 57.4551 121.651 57.6948 121.531 58.0545C121.411 58.4141 121.291 58.7138 121.291 59.0136V61.5911C121.291 61.651 121.291 61.711 121.231 61.711C121.171 61.711 121.171 61.7709 121.111 61.7709C121.052 61.7709 120.992 61.7709 120.992 61.711C120.992 61.651 120.932 61.5911 120.932 61.5911V56.9156C120.932 56.8556 120.932 56.7957 120.992 56.7957C121.052 56.7957 121.052 56.7357 121.111 56.7357C121.171 56.7357 121.231 56.7357 121.231 56.7957C121.231 56.8556 121.291 56.9156 121.291 56.9156V57.9346C121.471 57.515 121.711 57.1553 122.011 56.9156C122.31 56.6758 122.73 56.496 123.209 56.496C123.449 56.496 123.569 56.5559 123.569 56.7357Z" fill="#ffffff"/>
<path d="M136.577 57.1553C136.877 57.515 137.056 57.9945 137.056 58.594V61.5911C137.056 61.651 137.056 61.7109 136.996 61.7109C136.937 61.7109 136.937 61.7709 136.877 61.7709C136.817 61.7709 136.757 61.7709 136.757 61.7109C136.757 61.651 136.697 61.5911 136.697 61.5911V58.594C136.697 58.1144 136.577 57.7548 136.337 57.455C136.097 57.1553 135.738 57.0354 135.258 57.0354C134.958 57.0354 134.659 57.0954 134.419 57.2752C134.179 57.455 133.879 57.6349 133.76 57.8746C133.64 58.1144 133.52 58.3542 133.52 58.6539V61.651C133.52 61.711 133.52 61.7709 133.46 61.7709C133.4 61.7709 133.4 61.8308 133.34 61.8308C133.28 61.8308 133.22 61.8308 133.22 61.7709C133.22 61.711 133.16 61.651 133.16 61.651V54.4579C133.16 54.398 133.16 54.3381 133.22 54.3381C133.28 54.3381 133.28 54.2781 133.34 54.2781C133.4 54.2781 133.46 54.2781 133.46 54.3381C133.46 54.398 133.52 54.4579 133.52 54.4579V57.6948C133.7 57.3951 133.999 57.1553 134.299 56.9755C134.599 56.7957 134.958 56.6758 135.318 56.6758C135.858 56.6159 136.277 56.7957 136.577 57.1553Z" fill="#ffffff"/>
<path d="M141.552 55.7167C141.492 55.6568 141.432 55.5968 141.432 55.4769V55.417C141.432 55.2971 141.492 55.2372 141.552 55.1772C141.611 55.1173 141.731 55.0573 141.791 55.0573C141.911 55.0573 141.971 55.1173 142.031 55.1772C142.091 55.2372 142.151 55.2971 142.151 55.417V55.4769C142.151 55.5968 142.091 55.6568 142.031 55.7167C141.971 55.7766 141.911 55.8366 141.791 55.8366C141.671 55.7766 141.611 55.7766 141.552 55.7167ZM141.911 61.7109C141.851 61.7709 141.851 61.7709 141.791 61.7709C141.731 61.7709 141.671 61.7709 141.671 61.7109C141.671 61.651 141.611 61.5911 141.611 61.5911V56.7357C141.611 56.6758 141.611 56.6158 141.671 56.6158C141.731 56.6158 141.731 56.5559 141.791 56.5559C141.851 56.5559 141.911 56.5559 141.911 56.6158C141.911 56.6758 141.971 56.7357 141.971 56.7357V61.5911C141.971 61.5911 141.971 61.651 141.911 61.7109Z" fill="#ffffff"/>
<path d="M149.284 56.7357C149.284 56.7957 149.284 56.8556 149.224 56.9156C149.164 56.9755 149.164 56.9755 149.104 56.9755C149.104 56.9755 149.044 56.9755 148.984 56.9156C148.924 56.8556 148.804 56.8556 148.744 56.8556C148.445 56.8556 148.205 56.9755 147.905 57.2153C147.606 57.4551 147.366 57.6948 147.246 58.0545C147.126 58.4141 147.006 58.7138 147.006 59.0136V61.5911C147.006 61.651 147.006 61.711 146.946 61.711C146.886 61.711 146.886 61.7709 146.826 61.7709C146.766 61.7709 146.706 61.7709 146.706 61.711C146.706 61.651 146.646 61.5911 146.646 61.5911V56.9156C146.646 56.8556 146.646 56.7957 146.706 56.7957C146.766 56.7957 146.766 56.7357 146.826 56.7357C146.886 56.7357 146.946 56.7357 146.946 56.7957C146.946 56.8556 147.006 56.9156 147.006 56.9156V57.9346C147.186 57.515 147.426 57.1553 147.725 56.9156C148.025 56.6758 148.445 56.496 148.924 56.496C149.164 56.496 149.344 56.5559 149.284 56.7357Z" fill="#ffffff"/>
<path d="M153.061 55.7167C153.001 55.6568 152.941 55.5968 152.941 55.4769V55.417C152.941 55.2971 153.001 55.2372 153.061 55.1772C153.121 55.1173 153.241 55.0573 153.301 55.0573C153.421 55.0573 153.481 55.1173 153.541 55.1772C153.601 55.2372 153.661 55.2971 153.661 55.417V55.4769C153.661 55.5968 153.661 55.6568 153.541 55.7167C153.481 55.7766 153.421 55.8366 153.301 55.8366C153.241 55.7766 153.121 55.7766 153.061 55.7167ZM153.481 61.7109C153.421 61.7709 153.421 61.7709 153.361 61.7709C153.301 61.7709 153.241 61.7709 153.241 61.7109C153.241 61.651 153.181 61.5911 153.181 61.5911V56.7357C153.181 56.6758 153.181 56.6158 153.241 56.6158C153.301 56.6158 153.301 56.5559 153.361 56.5559C153.421 56.5559 153.481 56.5559 153.481 56.6158C153.481 56.6758 153.541 56.7357 153.541 56.7357V61.5911C153.541 61.5911 153.541 61.651 153.481 61.7109Z" fill="#ffffff"/>
<path d="M161.753 57.0354C162.053 57.3951 162.232 57.8746 162.232 58.4141V61.5311C162.232 61.5911 162.232 61.651 162.172 61.651C162.113 61.651 162.113 61.7109 162.053 61.7109C161.993 61.7109 161.933 61.7109 161.933 61.651C161.933 61.5911 161.873 61.5311 161.873 61.5311V58.4141C161.873 57.9346 161.753 57.5749 161.513 57.2752C161.273 56.9755 160.914 56.8556 160.434 56.8556C160.134 56.8556 159.835 56.9156 159.535 57.0954C159.235 57.2153 158.995 57.455 158.816 57.6948C158.636 57.9346 158.516 58.1744 158.516 58.4741V61.5911C158.516 61.651 158.516 61.7109 158.456 61.7109C158.396 61.7109 158.396 61.7709 158.336 61.7709C158.276 61.7709 158.216 61.7709 158.216 61.7109C158.216 61.651 158.156 61.5911 158.156 61.5911V56.9156C158.156 56.8556 158.156 56.7957 158.216 56.7957C158.276 56.7957 158.276 56.7357 158.336 56.7357C158.396 56.7357 158.456 56.7357 158.456 56.7957C158.456 56.8556 158.516 56.9156 158.516 56.9156V57.6349C158.696 57.3352 158.995 57.0954 159.355 56.8556C159.715 56.6158 160.074 56.5559 160.434 56.5559C160.974 56.496 161.453 56.6758 161.753 57.0354Z" fill="#ffffff"/>
<path d="M171.282 56.6758C171.342 56.7357 171.342 56.7957 171.342 56.7957V61.2314C171.342 61.7709 171.223 62.1905 171.043 62.6101C170.863 63.0297 170.503 63.2695 170.144 63.5092C169.784 63.6891 169.304 63.8089 168.825 63.8089C168.525 63.8089 168.285 63.749 167.986 63.6891C167.686 63.6291 167.446 63.5092 167.326 63.3893C167.206 63.2695 167.027 63.1496 167.027 63.0297C167.027 62.9697 167.027 62.9098 167.087 62.9098C167.087 62.8499 167.146 62.8499 167.206 62.8499C167.266 62.8499 167.326 62.9098 167.386 62.9697C167.506 63.0896 167.566 63.1496 167.686 63.2095C168.046 63.3294 168.405 63.3893 168.825 63.3893C169.484 63.3893 169.964 63.2095 170.323 62.7899C170.683 62.3703 170.863 61.8908 170.863 61.2314V60.5121C170.683 60.9317 170.383 61.2914 170.024 61.4712C169.664 61.711 169.244 61.8308 168.825 61.8308C168.345 61.8308 167.926 61.711 167.566 61.4712C167.206 61.2314 166.907 60.9317 166.667 60.5121C166.427 60.0925 166.367 59.6729 166.367 59.1334C166.367 58.594 166.487 58.1744 166.667 57.7548C166.847 57.3352 167.206 57.0355 167.566 56.7957C167.926 56.5559 168.345 56.436 168.825 56.436C169.304 56.436 169.724 56.5559 170.084 56.7957C170.443 57.0355 170.743 57.3352 170.923 57.6948V56.8556C170.923 56.7957 170.923 56.7357 170.983 56.7357C171.043 56.7357 171.043 56.6758 171.103 56.6758C171.163 56.6758 171.282 56.6758 171.282 56.6758ZM169.964 61.1715C170.263 60.9916 170.563 60.6919 170.683 60.3323C170.803 59.9726 170.983 59.613 170.983 59.1334C170.983 58.6539 170.923 58.2942 170.683 57.9346C170.503 57.5749 170.263 57.3352 169.964 57.1553C169.664 56.9755 169.304 56.8556 168.885 56.8556C168.465 56.8556 168.106 56.9755 167.806 57.1553C167.506 57.3352 167.206 57.6349 167.087 57.9945C166.967 58.3542 166.787 58.7138 166.787 59.1934C166.787 59.6729 166.847 60.0326 167.087 60.3922C167.266 60.7519 167.506 60.9916 167.806 61.2314C168.106 61.4712 168.465 61.5311 168.885 61.5311C169.304 61.5311 169.664 61.4112 169.964 61.1715Z" fill="#ffffff"/>
<path d="M182.193 61.5911C181.833 61.4112 181.474 61.1715 181.054 60.7519C180.994 60.6919 180.994 60.632 180.994 60.572C180.994 60.5121 180.994 60.4522 181.054 60.3922C181.114 60.3323 181.174 60.3323 181.234 60.3323C181.294 60.3323 181.354 60.3922 181.414 60.4522C181.654 60.7519 182.013 60.9916 182.373 61.1715C182.732 61.3513 183.092 61.4112 183.512 61.4112C184.051 61.4112 184.471 61.2914 184.83 61.0516C185.19 60.8118 185.37 60.4522 185.37 60.0326C185.37 59.6729 185.25 59.4331 185.13 59.2533C184.95 59.0735 184.771 58.8937 184.531 58.7738C184.291 58.6539 183.931 58.534 183.512 58.3542C183.032 58.1743 182.673 57.9945 182.433 57.8746C182.193 57.7547 181.953 57.515 181.773 57.2752C181.594 57.0354 181.474 56.6758 181.474 56.2562C181.474 55.8965 181.534 55.5968 181.773 55.3571C181.953 55.0574 182.253 54.8775 182.553 54.6977C182.852 54.5179 183.272 54.4579 183.751 54.4579C184.171 54.4579 184.531 54.5179 184.89 54.6977C185.25 54.8176 185.55 55.0574 185.73 55.2971C185.79 55.417 185.849 55.4769 185.849 55.5369C185.849 55.5968 185.849 55.6568 185.79 55.6568C185.73 55.7167 185.67 55.7167 185.61 55.7167C185.55 55.7167 185.49 55.7167 185.49 55.6568C185.31 55.417 185.07 55.2372 184.77 55.0574C184.471 54.8775 184.111 54.8176 183.751 54.8176C183.212 54.8176 182.792 54.9375 182.433 55.1772C182.073 55.417 181.893 55.7766 181.893 56.1962C181.893 56.496 181.953 56.7357 182.133 56.9156C182.313 57.0954 182.493 57.2752 182.732 57.3951C182.972 57.515 183.332 57.6349 183.692 57.8147C184.171 57.9945 184.531 58.1743 184.83 58.2942C185.13 58.4141 185.37 58.6539 185.55 58.8937C185.73 59.1934 185.849 59.553 185.849 59.9726C185.849 60.2723 185.789 60.572 185.55 60.8717C185.31 61.1715 185.07 61.3513 184.77 61.5311C184.471 61.7109 184.051 61.7709 183.572 61.7709C183.032 61.8908 182.553 61.7709 182.193 61.5911Z" fill="#ffffff"/>
<path d="M196.519 54.6377C196.579 54.6977 196.579 54.6977 196.579 54.7576V61.5311C196.579 61.591 196.579 61.651 196.519 61.651C196.459 61.7109 196.399 61.7109 196.399 61.7109C196.339 61.7109 196.279 61.7109 196.219 61.651C196.159 61.591 196.159 61.5311 196.159 61.5311V55.417L193.521 59.4331C193.462 59.4931 193.462 59.4931 193.402 59.4931C193.342 59.4931 193.282 59.4331 193.222 59.4331L190.584 55.417V61.5311C190.584 61.591 190.584 61.651 190.524 61.651C190.464 61.651 190.464 61.7109 190.404 61.7109C190.344 61.7109 190.285 61.7109 190.285 61.651C190.285 61.591 190.225 61.5311 190.225 61.5311V54.7576C190.225 54.6977 190.225 54.6377 190.285 54.6377C190.344 54.6377 190.344 54.5778 190.404 54.5778C190.464 54.5778 190.584 54.6377 190.584 54.6977L193.402 58.9536L196.219 54.6977C196.279 54.6377 196.339 54.5778 196.399 54.5778C196.459 54.5778 196.519 54.6377 196.519 54.6377Z" fill="#ffffff"/>
<path d="M207.369 60.0925C207.069 60.632 206.65 61.1115 206.17 61.4112C205.691 61.711 205.031 61.8908 204.372 61.8908C203.712 61.8908 203.113 61.711 202.574 61.4112C202.034 61.1115 201.674 60.6919 201.375 60.0925C201.075 59.4931 200.955 58.8937 200.955 58.1744C200.955 57.455 201.075 56.7957 201.375 56.2562C201.674 55.7167 202.094 55.2372 202.574 54.9375C203.053 54.6378 203.712 54.4579 204.372 54.4579C205.031 54.4579 205.631 54.6378 206.17 54.9375C206.71 55.2372 207.069 55.6568 207.369 56.2562C207.669 56.7957 207.789 57.455 207.789 58.1744C207.789 58.8937 207.669 59.553 207.369 60.0925ZM207.009 56.436C206.77 55.9565 206.41 55.5369 205.93 55.2971C205.451 54.9974 204.971 54.8775 204.372 54.8775C203.772 54.8775 203.293 54.9974 202.813 55.2971C202.334 55.5968 201.974 55.9565 201.734 56.436C201.495 56.9156 201.375 57.515 201.375 58.1744C201.375 58.8337 201.495 59.3732 201.734 59.9127C201.974 60.3922 202.334 60.8118 202.813 61.0516C203.293 61.3513 203.772 61.4712 204.372 61.4712C204.971 61.4712 205.451 61.3513 205.93 61.0516C206.41 60.7519 206.77 60.3922 207.009 59.9127C207.249 59.4331 207.369 58.8337 207.369 58.1744C207.369 57.515 207.249 56.9755 207.009 56.436Z" fill="#ffffff"/>
<path d="M218.097 60.0925C217.798 60.632 217.378 61.1115 216.899 61.4112C216.419 61.711 215.76 61.8908 215.1 61.8908C214.441 61.8908 213.842 61.711 213.302 61.4112C212.763 61.1115 212.403 60.6919 212.103 60.0925C211.803 59.4931 211.684 58.8937 211.684 58.1744C211.684 57.455 211.803 56.7957 212.103 56.2562C212.403 55.7167 212.823 55.2372 213.302 54.9375C213.782 54.6378 214.441 54.4579 215.1 54.4579C215.76 54.4579 216.359 54.6378 216.899 54.9375C217.438 55.2372 217.798 55.6568 218.097 56.2562C218.397 56.7957 218.517 57.455 218.517 58.1744C218.517 58.8937 218.397 59.553 218.097 60.0925ZM217.678 56.436C217.438 55.9565 217.078 55.5369 216.599 55.2971C216.119 54.9974 215.64 54.8775 215.04 54.8775C214.441 54.8775 213.961 54.9974 213.482 55.2971C213.002 55.5968 212.643 55.9565 212.403 56.436C212.163 56.9156 212.043 57.515 212.043 58.1744C212.043 58.8337 212.163 59.3732 212.403 59.9127C212.643 60.3922 213.002 60.8118 213.482 61.0516C213.961 61.3513 214.441 61.4712 215.04 61.4712C215.64 61.4712 216.119 61.3513 216.599 61.0516C217.078 60.7519 217.438 60.3922 217.678 59.9127C217.918 59.4331 218.037 58.8337 218.037 58.1744C218.037 57.515 217.978 56.9755 217.678 56.436Z" fill="#ffffff"/>
<path d="M227.33 54.6377C227.39 54.6977 227.39 54.6977 227.39 54.7576C227.39 54.8176 227.39 54.8775 227.33 54.8775C227.27 54.8775 227.27 54.9375 227.21 54.9375H224.933V61.5311C224.933 61.591 224.933 61.651 224.873 61.651C224.813 61.651 224.813 61.7109 224.753 61.7109C224.693 61.7109 224.633 61.7109 224.633 61.651C224.633 61.591 224.573 61.5311 224.573 61.5311V54.9375H222.295C222.235 54.9375 222.175 54.9375 222.175 54.8775C222.115 54.8176 222.115 54.8176 222.115 54.7576C222.115 54.6977 222.115 54.6377 222.175 54.6377C222.235 54.5778 222.235 54.5778 222.295 54.5778H227.27C227.27 54.5778 227.33 54.5778 227.33 54.6377Z" fill="#ffffff"/>
<path d="M236.86 54.6377C236.919 54.6977 236.919 54.7576 236.919 54.8176V61.5311C236.919 61.591 236.919 61.651 236.86 61.7109C236.8 61.7709 236.8 61.7709 236.74 61.7709C236.68 61.7709 236.62 61.7709 236.56 61.7109C236.5 61.651 236.5 61.5911 236.5 61.5311V58.2343H232.064V61.5311C232.064 61.591 232.064 61.651 232.004 61.7109C231.944 61.7709 231.944 61.7709 231.884 61.7709C231.824 61.7709 231.764 61.7709 231.704 61.7109C231.645 61.651 231.645 61.5911 231.645 61.5311V54.8176C231.645 54.7576 231.645 54.6977 231.704 54.6377C231.764 54.5778 231.764 54.5778 231.884 54.5778C232.004 54.5778 232.004 54.5778 232.064 54.6377C232.124 54.6977 232.124 54.7576 232.124 54.8176V57.8746H236.62V54.8176C236.62 54.7576 236.62 54.6977 236.68 54.6377C236.74 54.5778 236.74 54.5778 236.86 54.5778C236.979 54.5778 236.86 54.5778 236.86 54.6377Z" fill="#ffffff"/>
<path d="M247.111 54.6377C247.171 54.6977 247.171 54.7576 247.171 54.8176V61.5311C247.171 61.591 247.171 61.651 247.111 61.7109C247.051 61.7709 247.051 61.7709 246.991 61.7709C246.931 61.7709 246.871 61.7709 246.811 61.7109C246.751 61.651 246.751 61.5911 246.751 61.5311V58.2343H242.256V61.5311C242.256 61.591 242.256 61.651 242.196 61.7109C242.136 61.7709 242.136 61.7709 242.076 61.7709C242.016 61.7709 241.956 61.7709 241.896 61.7109C241.836 61.651 241.836 61.5911 241.836 61.5311V54.8176C241.836 54.7576 241.836 54.6977 241.896 54.6377C241.956 54.5778 241.956 54.5778 242.076 54.5778C242.196 54.5778 242.196 54.5778 242.256 54.6377C242.315 54.6977 242.315 54.7576 242.315 54.8176V57.8746H246.811V54.8176C246.811 54.7576 246.811 54.6977 246.871 54.6377C246.931 54.5778 246.931 54.5778 247.051 54.5778C247.171 54.5778 247.051 54.5778 247.111 54.6377Z" fill="#ffffff"/>
<path d="M250.826 55.5369C250.766 55.7167 250.587 55.8366 250.467 55.9565C250.347 56.0764 250.167 56.1363 250.047 56.1363C249.987 56.1363 249.987 56.1363 249.927 56.0764C249.867 56.0164 249.867 56.0164 249.867 55.9565C249.867 55.8965 249.867 55.8366 249.927 55.8366C249.927 55.8366 249.987 55.7767 250.047 55.7767C250.107 55.7767 250.167 55.7167 250.227 55.7167C250.347 55.6568 250.407 55.5968 250.467 55.4769C250.527 55.3571 250.527 55.2971 250.527 55.1772C250.527 54.9974 250.467 54.9375 250.347 54.9375C250.227 54.9375 250.167 54.9974 250.107 55.0574C250.047 54.9974 250.047 54.9375 250.047 54.8775C250.047 54.7576 250.107 54.6977 250.167 54.6378C250.227 54.5778 250.347 54.5179 250.467 54.5179C250.587 54.5179 250.706 54.5778 250.826 54.6378C250.946 54.6977 250.946 54.8176 250.946 54.9974C250.946 55.1772 250.946 55.3571 250.826 55.5369Z" fill="#ffffff"/>
<path d="M259.159 60.572C259.219 60.632 259.219 60.632 259.219 60.6919C259.219 60.7519 259.219 60.8118 259.159 60.8118C258.919 61.1115 258.68 61.3513 258.32 61.5311C257.96 61.7109 257.601 61.8308 257.241 61.8308C256.702 61.8308 256.282 61.7109 255.862 61.4712C255.443 61.2314 255.143 60.9317 254.963 60.5121C254.723 60.0925 254.604 59.6729 254.604 59.1334C254.604 58.5939 254.723 58.1144 254.903 57.6948C255.083 57.2752 255.383 56.9755 255.742 56.7357C256.102 56.496 256.462 56.3761 256.881 56.3761C257.301 56.3761 257.661 56.496 258.02 56.6158C258.38 56.7957 258.62 57.0354 258.859 57.3951C259.099 57.7547 259.219 58.1743 259.219 58.7138C259.219 58.7738 259.219 58.8337 259.159 58.8337C259.099 58.8936 259.099 58.8936 259.039 58.8936H255.023V59.0135C255.023 59.4331 255.083 59.7928 255.263 60.1524C255.443 60.5121 255.682 60.8118 256.042 60.9916C256.402 61.1715 256.761 61.2913 257.241 61.2913C257.541 61.2913 257.9 61.2314 258.14 61.0516C258.38 60.8717 258.68 60.6919 258.799 60.4521C258.859 60.3922 258.919 60.3323 258.979 60.3323C259.099 60.5121 259.099 60.572 259.159 60.572ZM256.162 57.0954C255.922 57.2153 255.682 57.455 255.443 57.6948C255.203 57.9346 255.083 58.2942 255.023 58.6539H258.799V58.534C258.74 58.1743 258.68 57.8746 258.44 57.6349C258.26 57.3951 258.02 57.2153 257.72 57.0954C257.421 56.9755 257.181 56.9156 256.881 56.9156C256.701 56.8556 256.402 56.9755 256.162 57.0954Z" fill="#ffffff"/>
<path d="M266.231 56.7357C266.231 56.7957 266.231 56.8556 266.171 56.9156C266.111 56.9755 266.111 56.9755 266.051 56.9755C266.051 56.9755 265.991 56.9755 265.932 56.9156C265.872 56.8556 265.752 56.8556 265.692 56.8556C265.392 56.8556 265.152 56.9755 264.853 57.2153C264.553 57.4551 264.313 57.6948 264.193 58.0545C264.073 58.4141 263.953 58.7138 263.953 59.0136V61.5911C263.953 61.651 263.953 61.711 263.893 61.711C263.834 61.711 263.834 61.7709 263.774 61.7709C263.714 61.7709 263.654 61.7709 263.654 61.711C263.654 61.651 263.594 61.5911 263.594 61.5911V56.9156C263.594 56.8556 263.594 56.7957 263.654 56.7957C263.714 56.7957 263.714 56.7357 263.774 56.7357C263.834 56.7357 263.893 56.7357 263.893 56.7957C263.893 56.8556 263.953 56.9156 263.953 56.9156V57.9346C264.133 57.515 264.373 57.1553 264.673 56.9156C264.972 56.6758 265.392 56.496 265.872 56.496C266.051 56.496 266.231 56.5559 266.231 56.7357Z" fill="#ffffff"/>
<path d="M57.4525 44.5674C55.7741 44.0279 54.2755 43.1288 52.777 41.87C51.9977 41.1507 51.5781 40.3715 51.5781 39.5323C51.5781 38.8729 51.8179 38.2735 52.3574 37.734C52.8969 37.1945 53.4363 36.9547 54.1557 36.9547C54.6951 36.9547 55.2346 37.1346 55.6542 37.4942C56.8531 38.4533 57.992 39.1726 59.1309 39.5922C60.2698 40.0118 61.5885 40.2516 63.147 40.2516C64.8254 40.2516 66.2041 39.8919 67.4029 39.1726C68.6018 38.4533 69.2012 37.4942 69.2012 36.4153C69.2012 35.0965 68.6018 34.0176 67.4029 33.2983C66.2041 32.519 64.3458 31.9795 61.7683 31.6199C55.2946 30.6608 52.0577 27.6637 52.0577 22.5686C52.0577 20.7104 52.5372 19.0919 53.4963 17.7133C54.4554 16.3346 55.7741 15.3156 57.5124 14.5962C59.2507 13.8769 61.049 13.5173 63.147 13.5173C65.0052 13.5173 66.7435 13.817 68.4219 14.3565C70.1003 14.896 71.419 15.6752 72.498 16.5743C73.3372 17.2337 73.8167 18.013 73.8167 18.9121C73.8167 19.5715 73.577 20.1709 73.0375 20.7104C72.558 21.2498 71.9585 21.4896 71.2392 21.4896C70.8196 21.4896 70.4 21.3697 70.0404 21.07C69.2611 20.4706 68.1822 19.8712 66.8035 19.3916C65.4248 18.8522 64.226 18.6124 63.0871 18.6124C61.2288 18.6124 59.7902 18.972 58.7712 19.6314C57.7522 20.2908 57.2127 21.2498 57.2127 22.3288C57.2127 23.5876 57.7522 24.5467 58.7712 25.206C59.8502 25.8654 61.4686 26.4049 63.6865 26.8245C66.2041 27.2441 68.2421 27.8435 69.8006 28.5029C71.2991 29.2222 72.4381 30.1213 73.2173 31.3202C73.9966 32.519 74.3562 34.1375 74.3562 36.1155C74.3562 37.9738 73.8167 39.5922 72.7977 41.0308C71.7188 42.4095 70.3401 43.4885 68.6018 44.2677C66.8634 45.047 65.0052 45.4066 62.9672 45.4066C60.9891 45.3467 59.0709 45.1069 57.4525 44.5674Z" fill="#ffffff"/>
<path d="M108.463 14.5963C109.003 15.1357 109.302 15.7352 109.302 16.5144V42.1697C109.302 42.949 109.063 43.6084 108.523 44.0879C107.984 44.5674 107.384 44.8671 106.545 44.8671C105.706 44.8671 105.046 44.6274 104.507 44.0879C103.967 43.6084 103.728 42.949 103.728 42.1098V24.3069L96.4147 35.5161C96.115 35.8758 95.7553 36.1755 95.3957 36.3553C95.036 36.5352 94.6164 36.655 94.1968 36.655C93.8372 36.655 93.4176 36.5951 93.0579 36.3553C92.6983 36.1156 92.3386 35.8758 92.0389 35.5161L84.726 23.9473V42.2297C84.726 43.0089 84.4862 43.6683 84.0066 44.2078C83.5271 44.6873 82.9277 44.987 82.1484 44.987C81.3692 44.987 80.8297 44.7473 80.3502 44.2078C79.8706 43.6683 79.6309 43.0689 79.6309 42.2896V16.5144C79.6309 15.7951 79.9306 15.1357 80.47 14.5963C81.0095 14.0568 81.6689 13.817 82.4481 13.817C82.8677 13.817 83.3473 13.9369 83.7669 14.1167C84.1865 14.3565 84.5461 14.6562 84.7859 14.9559L94.4366 29.8216L104.387 15.0159C104.627 14.6562 104.927 14.3565 105.346 14.1767C105.766 13.9968 106.125 13.877 106.545 13.877C107.324 13.817 107.924 14.0568 108.463 14.5963Z" fill="#ffffff"/>
<path d="M142.57 37.4343C141.251 39.8919 139.453 41.8101 137.175 43.2487C134.897 44.6873 132.32 45.4066 129.443 45.4066C126.565 45.4066 123.988 44.6873 121.71 43.2487C119.432 41.8101 117.634 39.8919 116.375 37.4343C115.116 34.9767 114.457 32.3392 114.457 29.402C114.457 26.4648 115.116 23.7674 116.375 21.3697C117.634 18.972 119.432 16.994 121.71 15.5553C123.988 14.1167 126.565 13.4574 129.443 13.4574C132.32 13.4574 134.897 14.1767 137.175 15.5553C139.453 16.934 141.251 18.9121 142.57 21.3697C143.889 23.8274 144.548 26.4648 144.548 29.402C144.548 32.3392 143.889 34.9767 142.57 37.4343ZM137.535 24.0072C136.756 22.3888 135.617 21.13 134.178 20.1709C132.739 19.2118 131.181 18.7323 129.383 18.7323C127.584 18.7323 125.966 19.2118 124.587 20.111C123.209 21.0101 122.07 22.3288 121.29 23.9473C120.511 25.5657 120.092 27.364 120.092 29.3421C120.092 31.3202 120.451 33.1184 121.29 34.7369C122.07 36.3553 123.149 37.6141 124.587 38.5732C125.966 39.5323 127.584 39.9519 129.383 39.9519C131.181 39.9519 132.739 39.4723 134.178 38.5132C135.617 37.5542 136.696 36.2954 137.535 34.6769C138.314 33.0585 138.734 31.2602 138.734 29.2821C138.734 27.304 138.374 25.6256 137.535 24.0072Z" fill="#ffffff"/>
<path d="M176.257 37.4343C174.939 39.8919 173.14 41.8101 170.863 43.2487C168.525 44.6274 165.947 45.3467 163.13 45.3467C160.313 45.3467 157.675 44.6274 155.398 43.1888C153.12 41.7501 151.321 39.832 150.063 37.3743C148.804 34.9167 148.145 32.2792 148.145 29.3421C148.145 26.4049 148.804 23.7075 150.063 21.3098C151.321 18.9121 153.12 16.934 155.398 15.4954C157.675 14.0568 160.253 13.3974 163.13 13.3974C166.007 13.3974 168.585 14.1167 170.863 15.4954C173.14 16.8741 174.939 18.8522 176.257 21.3098C177.576 23.7674 178.236 26.4049 178.236 29.3421C178.236 32.2792 177.516 34.9767 176.257 37.4343ZM171.222 24.0072C170.443 22.3888 169.304 21.13 167.926 20.1709C166.547 19.2118 164.928 18.7323 163.13 18.7323C161.332 18.7323 159.713 19.2118 158.335 20.111C156.956 21.0101 155.817 22.3288 155.038 23.9473C154.259 25.5657 153.839 27.364 153.839 29.3421C153.839 31.3202 154.259 33.1184 155.038 34.7369C155.817 36.3553 156.896 37.6141 158.335 38.5732C159.713 39.5323 161.332 39.9519 163.13 39.9519C164.928 39.9519 166.487 39.4723 167.926 38.5133C169.364 37.5542 170.443 36.2954 171.222 34.6769C172.002 33.0585 172.421 31.2602 172.421 29.2821C172.421 27.304 172.002 25.6257 171.222 24.0072Z" fill="#ffffff"/>
<path d="M204.791 14.5363C205.271 15.0159 205.57 15.6153 205.57 16.3945C205.57 17.1738 205.331 17.7732 204.791 18.2527C204.311 18.7323 203.652 18.9721 202.813 18.9721H195.86V42.2297C195.86 43.0089 195.56 43.6683 195.02 44.1478C194.481 44.6274 193.762 44.9271 192.922 44.9271C192.083 44.9271 191.424 44.6873 190.884 44.1478C190.345 43.6084 190.105 43.0089 190.105 42.2297V18.9721H183.152C182.373 18.9721 181.713 18.7323 181.174 18.2527C180.634 17.7732 180.395 17.1738 180.395 16.3945C180.395 15.6153 180.634 15.0758 181.174 14.5963C181.713 14.1167 182.313 13.877 183.092 13.877H202.813C203.592 13.877 204.252 14.1167 204.791 14.5363Z" fill="#ffffff"/>
<path d="M234.642 14.5963C235.122 15.0758 235.421 15.7352 235.421 16.5744V42.2297C235.421 43.0089 235.181 43.6683 234.642 44.1478C234.103 44.6873 233.443 44.9271 232.604 44.9271C231.885 44.9271 231.225 44.6873 230.686 44.1478C230.146 43.6084 229.907 43.0089 229.907 42.2297V31.8597H215.76V42.1697C215.76 42.949 215.46 43.6084 214.921 44.0879C214.381 44.5674 213.722 44.8671 212.943 44.8671C212.164 44.8671 211.504 44.6274 210.965 44.0879C210.425 43.5484 210.186 42.949 210.186 42.1697V16.5744C210.186 15.7951 210.425 15.1357 210.965 14.6562C211.504 14.1167 212.164 13.877 213.003 13.877C213.722 13.877 214.381 14.1167 214.921 14.6562C215.46 15.1957 215.7 15.7951 215.7 16.5744V26.7646H229.847V16.5744C229.847 15.7951 230.146 15.1357 230.686 14.6562C231.225 14.1167 231.885 13.877 232.664 13.877C233.503 13.877 234.162 14.1167 234.642 14.5963Z" fill="#ffffff"/>
<path d="M266.531 14.5963C267.01 15.0758 267.31 15.7352 267.31 16.5744V42.2297C267.31 43.0089 267.07 43.6683 266.531 44.1478C265.991 44.6873 265.332 44.9271 264.493 44.9271C263.773 44.9271 263.114 44.6873 262.574 44.1478C262.035 43.6084 261.795 43.0089 261.795 42.2297V31.8597H247.649V42.1697C247.649 42.949 247.349 43.6084 246.81 44.0879C246.27 44.5674 245.611 44.8671 244.832 44.8671C244.052 44.8671 243.393 44.6274 242.853 44.0879C242.314 43.5484 242.074 42.949 242.074 42.1697V16.5744C242.074 15.7951 242.314 15.1357 242.853 14.6562C243.393 14.1167 244.052 13.877 244.891 13.877C245.611 13.877 246.27 14.1167 246.81 14.6562C247.349 15.1957 247.589 15.7951 247.589 16.5744V26.7646H261.735V16.5744C261.735 15.7951 262.035 15.1357 262.574 14.6562C263.114 14.1167 263.773 13.877 264.553 13.877C265.392 13.877 266.051 14.1167 266.531 14.5963Z" fill="#ffffff"/>
<path d="M20.2881 30.1813C24.2443 33.6579 25.563 36.0556 25.563 39.832C25.563 43.3086 24.1843 46.1859 21.0673 49.1231C19.5688 50.5617 18.6696 52.5997 18.6696 54.8775C18.6696 59.3132 22.2662 62.9098 26.7019 62.9098C31.1376 62.9098 34.7342 59.3132 34.7342 54.8775C34.7342 52.5997 33.8351 50.5617 32.3365 49.1231C29.2794 46.1859 27.8408 43.3086 27.8408 39.832C27.8408 36.0556 29.1596 33.7179 33.1157 30.1813C35.3936 28.3231 36.8921 25.4458 36.8921 22.2689C36.8921 16.6343 32.3365 12.0787 26.7019 12.0787C21.0673 12.0787 16.5117 16.6343 16.5117 22.2689C16.5117 25.4458 18.0103 28.2631 20.2881 30.1813Z" fill="#ffffff"/>
<path d="M17.2915 31.9196C13.3353 28.4429 12.0166 26.0453 12.0166 22.2689C12.0166 18.7922 13.3953 15.915 16.4523 12.9778C17.9509 11.5392 18.85 9.50117 18.85 7.22336C18.91 2.78763 15.3134 -0.808914 10.8777 -0.808914C6.44196 -0.808914 2.78548 2.78763 2.78548 7.22336C2.78548 9.50117 3.74456 11.4793 5.18318 12.9778C8.24023 15.915 9.61891 18.7922 9.61891 22.2689C9.61891 26.0453 8.30018 28.383 4.34398 31.9196C2.12612 33.7778 0.6875 36.5951 0.6875 39.832C0.6875 45.4666 5.24312 50.0222 10.8777 50.0222C16.5123 50.0222 21.0679 45.4666 21.0679 39.832C21.008 36.5951 19.5693 33.7778 17.2915 31.9196Z" fill="#ffffff"/>
</svg>
