<svg width="268" height="66" viewBox="0 0 268 66" fill="none" xmlns="http://www.w3.org/2000/svg" style="max-width: 100%">
<path d="M59.0713 56.6378C59.1312 56.6978 59.1312 56.6978 59.1312 56.7577V63.5312C59.1312 63.5911 59.1312 63.6511 59.0713 63.6511C59.0113 63.6511 58.9514 63.711 58.9514 63.711C58.8915 63.711 58.8315 63.711 58.7716 63.6511C58.7116 63.5911 58.7116 63.5312 58.7116 63.5312V57.4171L56.0742 61.4332C56.0142 61.4932 56.0142 61.4932 55.9543 61.4932C55.8943 61.4932 55.8344 61.4332 55.7745 61.4332L53.137 57.4171V63.5312C53.137 63.5911 53.137 63.6511 53.0771 63.6511C53.0171 63.6511 52.9572 63.711 52.9572 63.711C52.8972 63.711 52.8373 63.711 52.8373 63.6511C52.8373 63.5911 52.7773 63.5312 52.7773 63.5312V56.7577C52.7773 56.6978 52.7773 56.6378 52.8373 56.6378C52.8972 56.6378 52.8972 56.5779 52.9572 56.5779C53.0771 56.5779 53.137 56.6378 53.137 56.6978L55.9543 60.9537L58.7716 56.6978C58.8315 56.6378 58.8915 56.5779 58.9514 56.5779C59.0113 56.5779 59.0113 56.6378 59.0713 56.6378Z" fill="#1D1D1B"/>
<path d="M68.182 58.6758C68.2419 58.7357 68.2419 58.7957 68.2419 58.7957V63.4712C68.2419 63.5311 68.2419 63.5911 68.182 63.5911C68.122 63.5911 68.0621 63.651 68.0621 63.651C68.0021 63.651 67.9422 63.651 67.9422 63.5911C67.9422 63.5311 67.8823 63.4712 67.8823 63.4712V62.572C67.7024 62.9317 67.4627 63.2314 67.103 63.4712C66.7433 63.7109 66.3837 63.8308 65.9042 63.8308C65.4246 63.8308 65.065 63.7109 64.7053 63.4712C64.3457 63.2314 64.0459 62.9317 63.8661 62.5121C63.6863 62.0925 63.5664 61.613 63.5664 61.1334C63.5664 60.6539 63.6863 60.1744 63.8661 59.7548C64.0459 59.3352 64.3457 59.0354 64.7053 58.7957C65.065 58.5559 65.4846 58.436 65.9042 58.436C66.3238 58.436 66.7433 58.5559 67.103 58.7957C67.4627 59.0354 67.7024 59.3352 67.8823 59.7548V58.8556C67.8823 58.7957 67.8823 58.7357 67.9422 58.7357C68.0021 58.7357 68.0621 58.6758 68.0621 58.6758C68.0621 58.6758 68.122 58.6758 68.182 58.6758ZM66.8632 63.1715C67.1629 62.9916 67.4027 62.6919 67.5825 62.3323C67.7624 61.9726 67.8223 61.613 67.8223 61.1334C67.8223 60.6539 67.7624 60.3542 67.5825 59.9945C67.4027 59.6349 67.1629 59.3951 66.8632 59.1553C66.5635 58.9156 66.2039 58.8556 65.8442 58.8556C65.4846 58.8556 65.1249 58.9755 64.8252 59.1553C64.5255 59.3352 64.2857 59.6349 64.1059 59.9346C63.9261 60.2942 63.8661 60.6539 63.8661 61.1334C63.8661 61.613 63.9261 61.9726 64.1059 62.3323C64.2857 62.6919 64.5255 62.9916 64.8252 63.1715C65.1249 63.3513 65.4846 63.4712 65.8442 63.4712C66.2039 63.4712 66.5635 63.3513 66.8632 63.1715Z" fill="#1D1D1B"/>
<path d="M76.8136 63.5312C76.8136 63.5912 76.8136 63.6511 76.7537 63.6511C76.6937 63.6511 76.6338 63.711 76.6338 63.711C76.5738 63.711 76.5139 63.711 76.454 63.6511L74.0563 61.0736L73.2171 61.7929V63.4713C73.2171 63.5312 73.2171 63.5912 73.1571 63.5912C73.0972 63.5912 73.0372 63.6511 73.0372 63.6511C73.0372 63.6511 72.9174 63.6511 72.9174 63.5912C72.9174 63.5312 72.8574 63.4713 72.8574 63.4713V56.2782C72.8574 56.2182 72.8574 56.1583 72.9174 56.1583C72.9773 56.1583 73.0372 56.0984 73.0372 56.0984C73.0372 56.0984 73.1571 56.0984 73.1571 56.1583C73.1571 56.2182 73.2171 56.2782 73.2171 56.2782V61.2534L76.454 58.556C76.5139 58.4961 76.5139 58.4961 76.5738 58.4961C76.6338 58.4961 76.6937 58.4961 76.6937 58.556C76.6937 58.6159 76.7537 58.6759 76.7537 58.7358C76.7537 58.7958 76.7537 58.8557 76.6937 58.9157L74.356 60.8338L76.7537 63.3514C76.8136 63.4713 76.8136 63.4713 76.8136 63.5312Z" fill="#1D1D1B"/>
<path d="M84.9066 62.5719C84.9665 62.6319 84.9665 62.6319 84.9665 62.6918C84.9665 62.7518 84.9665 62.8117 84.9066 62.8117C84.6668 63.1114 84.427 63.3512 84.0674 63.531C83.7077 63.7108 83.3481 63.8307 82.9884 63.8307C82.4489 63.8307 82.0293 63.7108 81.6098 63.4711C81.1902 63.2313 80.8905 62.9316 80.6507 62.512C80.4109 62.0924 80.291 61.6728 80.291 61.1333C80.291 60.5938 80.4109 60.1143 80.5907 59.6947C80.7706 59.2751 81.0703 58.9754 81.4299 58.7356C81.7896 58.4959 82.1492 58.376 82.5688 58.376C82.9884 58.376 83.3481 58.4959 83.7077 58.6157C84.0674 58.7956 84.3671 59.0353 84.5469 59.395C84.7867 59.7546 84.9066 60.1742 84.9066 60.7137C84.9066 60.7737 84.9066 60.8336 84.8466 60.8336C84.7867 60.8935 84.7867 60.8935 84.7267 60.8935H80.7106V61.0134C80.7106 61.433 80.7706 61.7927 80.9504 62.1523C81.1302 62.512 81.37 62.8117 81.7296 62.9915C82.0893 63.1714 82.4489 63.2912 82.9285 63.2912C83.2881 63.2912 83.5878 63.2313 83.8876 63.0515C84.1873 62.8716 84.427 62.6918 84.5469 62.452C84.6069 62.3921 84.6668 62.3322 84.7267 62.3322C84.8466 62.512 84.8466 62.5719 84.9066 62.5719ZM81.9095 59.0953C81.6697 59.2152 81.4299 59.4549 81.1902 59.6947C80.9504 59.9345 80.8305 60.2941 80.7706 60.6538H84.5469V60.5339C84.487 60.1742 84.427 59.8745 84.1873 59.6348C84.0074 59.395 83.7677 59.2152 83.468 59.0953C83.1683 58.9754 82.9285 58.9155 82.6288 58.9155C82.4489 58.8555 82.1492 58.9754 81.9095 59.0953Z" fill="#1D1D1B"/>
<path d="M98.7532 58.5558C98.8132 58.6157 98.8132 58.6757 98.8132 58.6757V63.2313C98.8132 63.7108 98.6933 64.1904 98.5134 64.55C98.3336 64.9097 98.0339 65.2094 97.6743 65.4492C97.3146 65.6889 96.895 65.7489 96.4155 65.7489C96.1158 65.7489 95.8161 65.6889 95.5763 65.629C95.3365 65.5691 95.0967 65.4492 94.9169 65.3293C94.797 65.2693 94.7371 65.1495 94.797 65.0296C94.857 64.9696 94.9169 64.9097 94.9769 64.9097C95.0368 64.9097 95.0368 64.9097 95.0368 64.9696C95.2166 65.0895 95.3965 65.1495 95.6362 65.2094C95.876 65.2693 96.1158 65.3293 96.3555 65.3293C96.7152 65.3293 97.0748 65.2094 97.3746 65.0296C97.6743 64.8497 97.914 64.61 98.0939 64.2503C98.2737 63.8907 98.3336 63.531 98.3336 63.1114V62.6319C98.1538 62.9316 97.914 63.1714 97.5544 63.4111C97.1947 63.591 96.8351 63.7108 96.4754 63.7108C95.876 63.7108 95.3964 63.531 95.0967 63.1714C94.797 62.8117 94.6172 62.3322 94.6172 61.7327V58.5558C94.6172 58.4959 94.6172 58.4359 94.6771 58.4359C94.7371 58.4359 94.7371 58.376 94.797 58.376C94.857 58.376 94.9169 58.376 94.9169 58.4359C94.9169 58.4959 94.9769 58.5558 94.9769 58.5558V61.7327C94.9769 62.8117 95.4564 63.3512 96.4155 63.3512C96.7152 63.3512 97.0149 63.2912 97.2546 63.1114C97.5544 62.9316 97.7941 62.7518 97.914 62.512C98.0339 62.2722 98.1538 62.0324 98.1538 61.7327V58.5558C98.1538 58.4959 98.1538 58.4359 98.2137 58.4359C98.2737 58.4359 98.2737 58.376 98.3336 58.376C98.3936 58.376 98.7532 58.4959 98.7532 58.5558Z" fill="#1D1D1B"/>
<path d="M107.685 62.5721C107.446 62.9917 107.146 63.2914 106.786 63.5312C106.426 63.771 105.947 63.8909 105.527 63.8909C105.108 63.8909 104.628 63.771 104.269 63.5312C103.909 63.2914 103.609 62.9917 103.369 62.5721C103.13 62.1525 103.01 61.7329 103.01 61.1935C103.01 60.654 103.13 60.2344 103.369 59.8148C103.609 59.3952 103.909 59.0955 104.269 58.8557C104.628 58.6159 105.108 58.4961 105.587 58.4961C106.067 58.4961 106.486 58.6159 106.846 58.8557C107.206 59.0955 107.505 59.3952 107.745 59.8148C107.985 60.2344 108.105 60.654 108.105 61.1935C108.105 61.7329 107.925 62.1525 107.685 62.5721ZM107.326 59.9946C107.146 59.635 106.906 59.3952 106.546 59.1554C106.187 58.9156 105.887 58.8557 105.467 58.8557C105.048 58.8557 104.688 58.9756 104.388 59.1554C104.089 59.3353 103.789 59.635 103.609 59.9946C103.429 60.3543 103.309 60.7139 103.309 61.1935C103.309 61.673 103.369 62.0327 103.609 62.3324C103.789 62.692 104.029 62.9318 104.388 63.1716C104.748 63.4113 105.048 63.4713 105.467 63.4713C105.887 63.4713 106.247 63.3514 106.546 63.1716C106.846 62.9917 107.086 62.692 107.326 62.3324C107.565 61.9727 107.565 61.6131 107.565 61.1335C107.565 60.654 107.505 60.3543 107.326 59.9946Z" fill="#1D1D1B"/>
<path d="M116.196 58.6757C116.256 58.7356 116.256 58.7956 116.256 58.7956V61.7927C116.256 62.4521 116.076 62.9316 115.716 63.2912C115.357 63.6509 114.877 63.7708 114.218 63.7708C113.558 63.7708 113.079 63.591 112.719 63.2912C112.36 62.9316 112.18 62.4521 112.18 61.7927V58.7956C112.18 58.7356 112.18 58.6757 112.24 58.6757C112.3 58.6757 112.3 58.6157 112.36 58.6157C112.419 58.6157 112.479 58.6157 112.479 58.6757C112.479 58.7356 112.539 58.7956 112.539 58.7956V61.7927C112.539 62.3322 112.659 62.6918 112.959 62.9915C113.259 63.2912 113.618 63.4111 114.158 63.4111C114.697 63.4111 115.057 63.2912 115.357 62.9915C115.656 62.6918 115.776 62.3322 115.776 61.7927V58.7956C115.776 58.7356 115.776 58.6757 115.836 58.6757C115.896 58.6757 115.896 58.6157 115.956 58.6157C116.016 58.6157 116.136 58.6757 116.196 58.6757Z" fill="#1D1D1B"/>
<path d="M123.569 58.7358C123.569 58.7958 123.569 58.8557 123.509 58.9157C123.449 58.9756 123.449 58.9756 123.389 58.9756C123.389 58.9756 123.329 58.9756 123.269 58.9157C123.209 58.8557 123.09 58.8557 123.03 58.8557C122.73 58.8557 122.49 58.9756 122.19 59.2154C121.891 59.4552 121.651 59.6949 121.531 60.0546C121.411 60.4142 121.291 60.7139 121.291 61.0137V63.5912C121.291 63.6511 121.291 63.7111 121.231 63.7111C121.171 63.7111 121.171 63.771 121.111 63.771C121.052 63.771 120.992 63.771 120.992 63.7111C120.992 63.6511 120.932 63.5912 120.932 63.5912V58.9157C120.932 58.8557 120.932 58.7958 120.992 58.7958C121.052 58.7958 121.052 58.7358 121.111 58.7358C121.171 58.7358 121.231 58.7358 121.231 58.7958C121.231 58.8557 121.291 58.9157 121.291 58.9157V59.9347C121.471 59.5151 121.711 59.1554 122.011 58.9157C122.31 58.6759 122.73 58.4961 123.209 58.4961C123.449 58.4961 123.569 58.556 123.569 58.7358Z" fill="#1D1D1B"/>
<path d="M136.577 59.1553C136.877 59.515 137.056 59.9945 137.056 60.594V63.5911C137.056 63.651 137.056 63.7109 136.996 63.7109C136.937 63.7109 136.937 63.7709 136.877 63.7709C136.817 63.7709 136.757 63.7709 136.757 63.7109C136.757 63.651 136.697 63.5911 136.697 63.5911V60.594C136.697 60.1144 136.577 59.7548 136.337 59.455C136.097 59.1553 135.738 59.0354 135.258 59.0354C134.958 59.0354 134.659 59.0954 134.419 59.2752C134.179 59.455 133.879 59.6349 133.76 59.8746C133.64 60.1144 133.52 60.3542 133.52 60.6539V63.651C133.52 63.711 133.52 63.7709 133.46 63.7709C133.4 63.7709 133.4 63.8308 133.34 63.8308C133.28 63.8308 133.22 63.8308 133.22 63.7709C133.22 63.711 133.16 63.651 133.16 63.651V56.4579C133.16 56.398 133.16 56.3381 133.22 56.3381C133.28 56.3381 133.28 56.2781 133.34 56.2781C133.4 56.2781 133.46 56.2781 133.46 56.3381C133.46 56.398 133.52 56.4579 133.52 56.4579V59.6948C133.7 59.3951 133.999 59.1553 134.299 58.9755C134.599 58.7957 134.958 58.6758 135.318 58.6758C135.858 58.6159 136.277 58.7957 136.577 59.1553Z" fill="#1D1D1B"/>
<path d="M141.552 57.7168C141.492 57.6569 141.432 57.5969 141.432 57.477V57.4171C141.432 57.2972 141.492 57.2373 141.552 57.1773C141.611 57.1174 141.731 57.0574 141.791 57.0574C141.911 57.0574 141.971 57.1174 142.031 57.1773C142.091 57.2373 142.151 57.2972 142.151 57.4171V57.477C142.151 57.5969 142.091 57.6569 142.031 57.7168C141.971 57.7767 141.911 57.8367 141.791 57.8367C141.671 57.7767 141.611 57.7767 141.552 57.7168ZM141.911 63.711C141.851 63.771 141.851 63.771 141.791 63.771C141.731 63.771 141.671 63.771 141.671 63.711C141.671 63.6511 141.611 63.5912 141.611 63.5912V58.7358C141.611 58.6759 141.611 58.6159 141.671 58.6159C141.731 58.6159 141.731 58.556 141.791 58.556C141.851 58.556 141.911 58.556 141.911 58.6159C141.911 58.6759 141.971 58.7358 141.971 58.7358V63.5912C141.971 63.5912 141.971 63.6511 141.911 63.711Z" fill="#1D1D1B"/>
<path d="M149.284 58.7358C149.284 58.7958 149.284 58.8557 149.224 58.9157C149.164 58.9756 149.164 58.9756 149.104 58.9756C149.104 58.9756 149.044 58.9756 148.984 58.9157C148.924 58.8557 148.804 58.8557 148.744 58.8557C148.445 58.8557 148.205 58.9756 147.905 59.2154C147.606 59.4552 147.366 59.6949 147.246 60.0546C147.126 60.4142 147.006 60.7139 147.006 61.0137V63.5912C147.006 63.6511 147.006 63.7111 146.946 63.7111C146.886 63.7111 146.886 63.771 146.826 63.771C146.766 63.771 146.706 63.771 146.706 63.7111C146.706 63.6511 146.646 63.5912 146.646 63.5912V58.9157C146.646 58.8557 146.646 58.7958 146.706 58.7958C146.766 58.7958 146.766 58.7358 146.826 58.7358C146.886 58.7358 146.946 58.7358 146.946 58.7958C146.946 58.8557 147.006 58.9157 147.006 58.9157V59.9347C147.186 59.5151 147.426 59.1554 147.725 58.9157C148.025 58.6759 148.445 58.4961 148.924 58.4961C149.164 58.4961 149.344 58.556 149.284 58.7358Z" fill="#1D1D1B"/>
<path d="M153.061 57.7168C153.001 57.6569 152.941 57.5969 152.941 57.477V57.4171C152.941 57.2972 153.001 57.2373 153.061 57.1773C153.121 57.1174 153.241 57.0574 153.301 57.0574C153.421 57.0574 153.481 57.1174 153.541 57.1773C153.601 57.2373 153.661 57.2972 153.661 57.4171V57.477C153.661 57.5969 153.661 57.6569 153.541 57.7168C153.481 57.7767 153.421 57.8367 153.301 57.8367C153.241 57.7767 153.121 57.7767 153.061 57.7168ZM153.481 63.711C153.421 63.771 153.421 63.771 153.361 63.771C153.301 63.771 153.241 63.771 153.241 63.711C153.241 63.6511 153.181 63.5912 153.181 63.5912V58.7358C153.181 58.6759 153.181 58.6159 153.241 58.6159C153.301 58.6159 153.301 58.556 153.361 58.556C153.421 58.556 153.481 58.556 153.481 58.6159C153.481 58.6759 153.541 58.7358 153.541 58.7358V63.5912C153.541 63.5912 153.541 63.6511 153.481 63.711Z" fill="#1D1D1B"/>
<path d="M161.753 59.0353C162.053 59.395 162.232 59.8745 162.232 60.414V63.531C162.232 63.591 162.232 63.6509 162.172 63.6509C162.113 63.6509 162.113 63.7108 162.053 63.7108C161.993 63.7108 161.933 63.7108 161.933 63.6509C161.933 63.591 161.873 63.531 161.873 63.531V60.414C161.873 59.9345 161.753 59.5748 161.513 59.2751C161.273 58.9754 160.914 58.8555 160.434 58.8555C160.134 58.8555 159.835 58.9155 159.535 59.0953C159.235 59.2152 158.995 59.4549 158.816 59.6947C158.636 59.9345 158.516 60.1743 158.516 60.474V63.591C158.516 63.6509 158.516 63.7108 158.456 63.7108C158.396 63.7108 158.396 63.7708 158.336 63.7708C158.276 63.7708 158.216 63.7708 158.216 63.7108C158.216 63.6509 158.156 63.591 158.156 63.591V58.9155C158.156 58.8555 158.156 58.7956 158.216 58.7956C158.276 58.7956 158.276 58.7356 158.336 58.7356C158.396 58.7356 158.456 58.7356 158.456 58.7956C158.456 58.8555 158.516 58.9155 158.516 58.9155V59.6348C158.696 59.3351 158.995 59.0953 159.355 58.8555C159.715 58.6157 160.074 58.5558 160.434 58.5558C160.974 58.4959 161.453 58.6757 161.753 59.0353Z" fill="#1D1D1B"/>
<path d="M171.282 58.6758C171.342 58.7357 171.342 58.7957 171.342 58.7957V63.2314C171.342 63.7709 171.223 64.1905 171.043 64.6101C170.863 65.0297 170.503 65.2695 170.144 65.5092C169.784 65.6891 169.304 65.8089 168.825 65.8089C168.525 65.8089 168.285 65.749 167.986 65.6891C167.686 65.6291 167.446 65.5092 167.326 65.3893C167.206 65.2695 167.027 65.1496 167.027 65.0297C167.027 64.9697 167.027 64.9098 167.087 64.9098C167.087 64.8499 167.146 64.8499 167.206 64.8499C167.266 64.8499 167.326 64.9098 167.386 64.9697C167.506 65.0896 167.566 65.1496 167.686 65.2095C168.046 65.3294 168.405 65.3893 168.825 65.3893C169.484 65.3893 169.964 65.2095 170.323 64.7899C170.683 64.3703 170.863 63.8908 170.863 63.2314V62.5121C170.683 62.9317 170.383 63.2914 170.024 63.4712C169.664 63.711 169.244 63.8308 168.825 63.8308C168.345 63.8308 167.926 63.711 167.566 63.4712C167.206 63.2314 166.907 62.9317 166.667 62.5121C166.427 62.0925 166.367 61.6729 166.367 61.1334C166.367 60.594 166.487 60.1744 166.667 59.7548C166.847 59.3352 167.206 59.0355 167.566 58.7957C167.926 58.5559 168.345 58.436 168.825 58.436C169.304 58.436 169.724 58.5559 170.084 58.7957C170.443 59.0355 170.743 59.3352 170.923 59.6948V58.8556C170.923 58.7957 170.923 58.7357 170.983 58.7357C171.043 58.7357 171.043 58.6758 171.103 58.6758C171.163 58.6758 171.282 58.6758 171.282 58.6758ZM169.964 63.1715C170.263 62.9916 170.563 62.6919 170.683 62.3323C170.803 61.9726 170.983 61.613 170.983 61.1334C170.983 60.6539 170.923 60.2942 170.683 59.9346C170.503 59.5749 170.263 59.3352 169.964 59.1553C169.664 58.9755 169.304 58.8556 168.885 58.8556C168.465 58.8556 168.106 58.9755 167.806 59.1553C167.506 59.3352 167.206 59.6349 167.087 59.9945C166.967 60.3542 166.787 60.7138 166.787 61.1934C166.787 61.6729 166.847 62.0326 167.087 62.3922C167.266 62.7519 167.506 62.9916 167.806 63.2314C168.106 63.4712 168.465 63.5311 168.885 63.5311C169.304 63.5311 169.664 63.4112 169.964 63.1715Z" fill="#1D1D1B"/>
<path d="M182.193 63.5912C181.833 63.4113 181.474 63.1716 181.054 62.752C180.994 62.692 180.994 62.6321 180.994 62.5721C180.994 62.5122 180.994 62.4523 181.054 62.3923C181.114 62.3324 181.174 62.3324 181.234 62.3324C181.294 62.3324 181.354 62.3923 181.414 62.4523C181.654 62.752 182.013 62.9917 182.373 63.1716C182.732 63.3514 183.092 63.4113 183.512 63.4113C184.051 63.4113 184.471 63.2915 184.83 63.0517C185.19 62.8119 185.37 62.4523 185.37 62.0327C185.37 61.673 185.25 61.4332 185.13 61.2534C184.95 61.0736 184.771 60.8938 184.531 60.7739C184.291 60.654 183.931 60.5341 183.512 60.3543C183.032 60.1744 182.673 59.9946 182.433 59.8747C182.193 59.7548 181.953 59.5151 181.773 59.2753C181.594 59.0355 181.474 58.6759 181.474 58.2563C181.474 57.8966 181.534 57.5969 181.773 57.3572C181.953 57.0575 182.253 56.8776 182.553 56.6978C182.852 56.518 183.272 56.458 183.751 56.458C184.171 56.458 184.531 56.518 184.89 56.6978C185.25 56.8177 185.55 57.0575 185.73 57.2972C185.79 57.4171 185.849 57.477 185.849 57.537C185.849 57.5969 185.849 57.6569 185.79 57.6569C185.73 57.7168 185.67 57.7168 185.61 57.7168C185.55 57.7168 185.49 57.7168 185.49 57.6569C185.31 57.4171 185.07 57.2373 184.77 57.0575C184.471 56.8776 184.111 56.8177 183.751 56.8177C183.212 56.8177 182.792 56.9376 182.433 57.1773C182.073 57.4171 181.893 57.7767 181.893 58.1963C181.893 58.4961 181.953 58.7358 182.133 58.9157C182.313 59.0955 182.493 59.2753 182.732 59.3952C182.972 59.5151 183.332 59.635 183.692 59.8148C184.171 59.9946 184.531 60.1744 184.83 60.2943C185.13 60.4142 185.37 60.654 185.55 60.8938C185.73 61.1935 185.849 61.5531 185.849 61.9727C185.849 62.2724 185.789 62.5721 185.55 62.8718C185.31 63.1716 185.07 63.3514 184.77 63.5312C184.471 63.711 184.051 63.771 183.572 63.771C183.032 63.8909 182.553 63.771 182.193 63.5912Z" fill="#1D1D1B"/>
<path d="M196.519 56.6378C196.579 56.6978 196.579 56.6978 196.579 56.7577V63.5312C196.579 63.5911 196.579 63.6511 196.519 63.6511C196.459 63.711 196.399 63.711 196.399 63.711C196.339 63.711 196.279 63.711 196.219 63.6511C196.159 63.5911 196.159 63.5312 196.159 63.5312V57.4171L193.521 61.4332C193.462 61.4932 193.462 61.4932 193.402 61.4932C193.342 61.4932 193.282 61.4332 193.222 61.4332L190.584 57.4171V63.5312C190.584 63.5911 190.584 63.6511 190.524 63.6511C190.464 63.6511 190.464 63.711 190.404 63.711C190.344 63.711 190.285 63.711 190.285 63.6511C190.285 63.5911 190.225 63.5312 190.225 63.5312V56.7577C190.225 56.6978 190.225 56.6378 190.285 56.6378C190.344 56.6378 190.344 56.5779 190.404 56.5779C190.464 56.5779 190.584 56.6378 190.584 56.6978L193.402 60.9537L196.219 56.6978C196.279 56.6378 196.339 56.5779 196.399 56.5779C196.459 56.5779 196.519 56.6378 196.519 56.6378Z" fill="#1D1D1B"/>
<path d="M207.369 62.0926C207.069 62.6321 206.65 63.1116 206.17 63.4113C205.691 63.7111 205.031 63.8909 204.372 63.8909C203.712 63.8909 203.113 63.7111 202.574 63.4113C202.034 63.1116 201.674 62.692 201.375 62.0926C201.075 61.4932 200.955 60.8938 200.955 60.1745C200.955 59.4551 201.075 58.7958 201.375 58.2563C201.674 57.7168 202.094 57.2373 202.574 56.9376C203.053 56.6379 203.712 56.458 204.372 56.458C205.031 56.458 205.631 56.6379 206.17 56.9376C206.71 57.2373 207.069 57.6569 207.369 58.2563C207.669 58.7958 207.789 59.4551 207.789 60.1745C207.789 60.8938 207.669 61.5531 207.369 62.0926ZM207.009 58.4361C206.77 57.9566 206.41 57.537 205.93 57.2972C205.451 56.9975 204.971 56.8776 204.372 56.8776C203.772 56.8776 203.293 56.9975 202.813 57.2972C202.334 57.5969 201.974 57.9566 201.734 58.4361C201.495 58.9157 201.375 59.5151 201.375 60.1745C201.375 60.8338 201.495 61.3733 201.734 61.9128C201.974 62.3923 202.334 62.8119 202.813 63.0517C203.293 63.3514 203.772 63.4713 204.372 63.4713C204.971 63.4713 205.451 63.3514 205.93 63.0517C206.41 62.752 206.77 62.3923 207.009 61.9128C207.249 61.4332 207.369 60.8338 207.369 60.1745C207.369 59.5151 207.249 58.9756 207.009 58.4361Z" fill="#1D1D1B"/>
<path d="M218.097 62.0926C217.798 62.6321 217.378 63.1116 216.899 63.4113C216.419 63.7111 215.76 63.8909 215.1 63.8909C214.441 63.8909 213.842 63.7111 213.302 63.4113C212.763 63.1116 212.403 62.692 212.103 62.0926C211.803 61.4932 211.684 60.8938 211.684 60.1745C211.684 59.4551 211.803 58.7958 212.103 58.2563C212.403 57.7168 212.823 57.2373 213.302 56.9376C213.782 56.6379 214.441 56.458 215.1 56.458C215.76 56.458 216.359 56.6379 216.899 56.9376C217.438 57.2373 217.798 57.6569 218.097 58.2563C218.397 58.7958 218.517 59.4551 218.517 60.1745C218.517 60.8938 218.397 61.5531 218.097 62.0926ZM217.678 58.4361C217.438 57.9566 217.078 57.537 216.599 57.2972C216.119 56.9975 215.64 56.8776 215.04 56.8776C214.441 56.8776 213.961 56.9975 213.482 57.2972C213.002 57.5969 212.643 57.9566 212.403 58.4361C212.163 58.9157 212.043 59.5151 212.043 60.1745C212.043 60.8338 212.163 61.3733 212.403 61.9128C212.643 62.3923 213.002 62.8119 213.482 63.0517C213.961 63.3514 214.441 63.4713 215.04 63.4713C215.64 63.4713 216.119 63.3514 216.599 63.0517C217.078 62.752 217.438 62.3923 217.678 61.9128C217.918 61.4332 218.037 60.8338 218.037 60.1745C218.037 59.5151 217.978 58.9756 217.678 58.4361Z" fill="#1D1D1B"/>
<path d="M227.33 56.6378C227.39 56.6978 227.39 56.6978 227.39 56.7577C227.39 56.8177 227.39 56.8776 227.33 56.8776C227.27 56.8776 227.27 56.9376 227.21 56.9376H224.933V63.5312C224.933 63.5911 224.933 63.6511 224.873 63.6511C224.813 63.6511 224.813 63.711 224.753 63.711C224.693 63.711 224.633 63.711 224.633 63.6511C224.633 63.5911 224.573 63.5312 224.573 63.5312V56.9376H222.295C222.235 56.9376 222.175 56.9376 222.175 56.8776C222.115 56.8177 222.115 56.8177 222.115 56.7577C222.115 56.6978 222.115 56.6378 222.175 56.6378C222.235 56.5779 222.235 56.5779 222.295 56.5779H227.27C227.27 56.5779 227.33 56.5779 227.33 56.6378Z" fill="#1D1D1B"/>
<path d="M236.86 56.6378C236.919 56.6978 236.919 56.7577 236.919 56.8177V63.5312C236.919 63.5911 236.919 63.6511 236.86 63.711C236.8 63.771 236.8 63.771 236.74 63.771C236.68 63.771 236.62 63.771 236.56 63.711C236.5 63.6511 236.5 63.5912 236.5 63.5312V60.2344H232.064V63.5312C232.064 63.5911 232.064 63.6511 232.004 63.711C231.944 63.771 231.944 63.771 231.884 63.771C231.824 63.771 231.764 63.771 231.704 63.711C231.645 63.6511 231.645 63.5912 231.645 63.5312V56.8177C231.645 56.7577 231.645 56.6978 231.704 56.6378C231.764 56.5779 231.764 56.5779 231.884 56.5779C232.004 56.5779 232.004 56.5779 232.064 56.6378C232.124 56.6978 232.124 56.7577 232.124 56.8177V59.8747H236.62V56.8177C236.62 56.7577 236.62 56.6978 236.68 56.6378C236.74 56.5779 236.74 56.5779 236.86 56.5779C236.979 56.5779 236.86 56.5779 236.86 56.6378Z" fill="#1D1D1B"/>
<path d="M247.111 56.6378C247.171 56.6978 247.171 56.7577 247.171 56.8177V63.5312C247.171 63.5911 247.171 63.6511 247.111 63.711C247.051 63.771 247.051 63.771 246.991 63.771C246.931 63.771 246.871 63.771 246.811 63.711C246.751 63.6511 246.751 63.5912 246.751 63.5312V60.2344H242.256V63.5312C242.256 63.5911 242.256 63.6511 242.196 63.711C242.136 63.771 242.136 63.771 242.076 63.771C242.016 63.771 241.956 63.771 241.896 63.711C241.836 63.6511 241.836 63.5912 241.836 63.5312V56.8177C241.836 56.7577 241.836 56.6978 241.896 56.6378C241.956 56.5779 241.956 56.5779 242.076 56.5779C242.196 56.5779 242.196 56.5779 242.256 56.6378C242.315 56.6978 242.315 56.7577 242.315 56.8177V59.8747H246.811V56.8177C246.811 56.7577 246.811 56.6978 246.871 56.6378C246.931 56.5779 246.931 56.5779 247.051 56.5779C247.171 56.5779 247.051 56.5779 247.111 56.6378Z" fill="#1D1D1B"/>
<path d="M250.826 57.5368C250.766 57.7166 250.587 57.8365 250.467 57.9564C250.347 58.0763 250.167 58.1362 250.047 58.1362C249.987 58.1362 249.987 58.1362 249.927 58.0763C249.867 58.0163 249.867 58.0163 249.867 57.9564C249.867 57.8964 249.867 57.8365 249.927 57.8365C249.927 57.8365 249.987 57.7766 250.047 57.7766C250.107 57.7766 250.167 57.7166 250.227 57.7166C250.347 57.6567 250.407 57.5967 250.467 57.4768C250.527 57.357 250.527 57.297 250.527 57.1771C250.527 56.9973 250.467 56.9374 250.347 56.9374C250.227 56.9374 250.167 56.9973 250.107 57.0573C250.047 56.9973 250.047 56.9374 250.047 56.8774C250.047 56.7575 250.107 56.6976 250.167 56.6377C250.227 56.5777 250.347 56.5178 250.467 56.5178C250.587 56.5178 250.706 56.5777 250.826 56.6377C250.946 56.6976 250.946 56.8175 250.946 56.9973C250.946 57.1771 250.946 57.357 250.826 57.5368Z" fill="#1D1D1B"/>
<path d="M259.159 62.5719C259.219 62.6319 259.219 62.6319 259.219 62.6918C259.219 62.7518 259.219 62.8117 259.159 62.8117C258.919 63.1114 258.68 63.3512 258.32 63.531C257.96 63.7108 257.601 63.8307 257.241 63.8307C256.702 63.8307 256.282 63.7108 255.862 63.4711C255.443 63.2313 255.143 62.9316 254.963 62.512C254.723 62.0924 254.604 61.6728 254.604 61.1333C254.604 60.5938 254.723 60.1143 254.903 59.6947C255.083 59.2751 255.383 58.9754 255.742 58.7356C256.102 58.4959 256.462 58.376 256.881 58.376C257.301 58.376 257.661 58.4959 258.02 58.6157C258.38 58.7956 258.62 59.0353 258.859 59.395C259.099 59.7546 259.219 60.1742 259.219 60.7137C259.219 60.7737 259.219 60.8336 259.159 60.8336C259.099 60.8935 259.099 60.8935 259.039 60.8935H255.023V61.0134C255.023 61.433 255.083 61.7927 255.263 62.1523C255.443 62.512 255.682 62.8117 256.042 62.9915C256.402 63.1714 256.761 63.2912 257.241 63.2912C257.541 63.2912 257.9 63.2313 258.14 63.0515C258.38 62.8716 258.68 62.6918 258.799 62.452C258.859 62.3921 258.919 62.3322 258.979 62.3322C259.099 62.512 259.099 62.5719 259.159 62.5719ZM256.161 59.0953C255.921 59.2152 255.682 59.4549 255.443 59.6947C255.203 59.9345 255.083 60.2941 255.023 60.6538H258.799V60.5339C258.74 60.1742 258.68 59.8745 258.44 59.6348C258.26 59.395 258.02 59.2152 257.72 59.0953C257.421 58.9754 257.181 58.9155 256.881 58.9155C256.701 58.8555 256.401 58.9754 256.161 59.0953Z" fill="#1D1D1B"/>
<path d="M266.231 58.7358C266.231 58.7958 266.231 58.8557 266.171 58.9157C266.111 58.9756 266.111 58.9756 266.051 58.9756C266.051 58.9756 265.991 58.9756 265.932 58.9157C265.872 58.8557 265.752 58.8557 265.692 58.8557C265.392 58.8557 265.152 58.9756 264.853 59.2154C264.553 59.4552 264.313 59.6949 264.193 60.0546C264.073 60.4142 263.953 60.7139 263.953 61.0137V63.5912C263.953 63.6511 263.953 63.7111 263.893 63.7111C263.834 63.7111 263.834 63.771 263.774 63.771C263.714 63.771 263.654 63.771 263.654 63.7111C263.654 63.6511 263.594 63.5912 263.594 63.5912V58.9157C263.594 58.8557 263.594 58.7958 263.654 58.7958C263.714 58.7958 263.714 58.7358 263.774 58.7358C263.834 58.7358 263.893 58.7358 263.893 58.7958C263.893 58.8557 263.953 58.9157 263.953 58.9157V59.9347C264.133 59.5151 264.373 59.1554 264.673 58.9157C264.972 58.6759 265.392 58.4961 265.872 58.4961C266.051 58.4961 266.231 58.556 266.231 58.7358Z" fill="#1D1D1B"/>
<path d="M57.4525 46.5674C55.7741 46.0279 54.2755 45.1288 52.777 43.87C51.9977 43.1507 51.5781 42.3715 51.5781 41.5323C51.5781 40.8729 51.8179 40.2735 52.3574 39.734C52.8969 39.1945 53.4363 38.9547 54.1557 38.9547C54.6951 38.9547 55.2346 39.1346 55.6542 39.4942C56.8531 40.4533 57.992 41.1726 59.1309 41.5922C60.2698 42.0118 61.5885 42.2516 63.147 42.2516C64.8254 42.2516 66.2041 41.8919 67.4029 41.1726C68.6018 40.4533 69.2012 39.4942 69.2012 38.4153C69.2012 37.0965 68.6018 36.0176 67.4029 35.2983C66.2041 34.519 64.3458 33.9795 61.7683 33.6199C55.2946 32.6608 52.0577 29.6637 52.0577 24.5686C52.0577 22.7104 52.5372 21.0919 53.4963 19.7133C54.4554 18.3346 55.7741 17.3156 57.5124 16.5962C59.2507 15.8769 61.049 15.5173 63.147 15.5173C65.0052 15.5173 66.7435 15.817 68.4219 16.3565C70.1003 16.896 71.419 17.6752 72.498 18.5743C73.3372 19.2337 73.8167 20.013 73.8167 20.9121C73.8167 21.5715 73.577 22.1709 73.0375 22.7104C72.558 23.2498 71.9585 23.4896 71.2392 23.4896C70.8196 23.4896 70.4 23.3697 70.0404 23.07C69.2611 22.4706 68.1822 21.8712 66.8035 21.3916C65.4248 20.8522 64.226 20.6124 63.0871 20.6124C61.2288 20.6124 59.7902 20.972 58.7712 21.6314C57.7522 22.2908 57.2127 23.2498 57.2127 24.3288C57.2127 25.5876 57.7522 26.5467 58.7712 27.206C59.8502 27.8654 61.4686 28.4049 63.6865 28.8245C66.2041 29.2441 68.2421 29.8435 69.8006 30.5029C71.2991 31.2222 72.4381 32.1213 73.2173 33.3202C73.9966 34.519 74.3562 36.1375 74.3562 38.1155C74.3562 39.9738 73.8167 41.5922 72.7977 43.0308C71.7188 44.4095 70.3401 45.4885 68.6018 46.2677C66.8634 47.047 65.0052 47.4066 62.9672 47.4066C60.9891 47.3467 59.0709 47.1069 57.4525 46.5674Z" fill="#161616"/>
<path d="M108.463 16.5962C109.003 17.1356 109.302 17.7351 109.302 18.5143V44.1696C109.302 44.9489 109.063 45.6083 108.523 46.0878C107.984 46.5673 107.384 46.867 106.545 46.867C105.706 46.867 105.046 46.6273 104.507 46.0878C103.967 45.6083 103.728 44.9489 103.728 44.1097V26.3068L96.4147 37.516C96.115 37.8757 95.7553 38.1754 95.3957 38.3552C95.036 38.5351 94.6164 38.6549 94.1968 38.6549C93.8372 38.6549 93.4176 38.595 93.0579 38.3552C92.6983 38.1155 92.3386 37.8757 92.0389 37.516L84.726 25.9472V44.2296C84.726 45.0088 84.4862 45.6682 84.0066 46.2077C83.5271 46.6872 82.9277 46.9869 82.1484 46.9869C81.3692 46.9869 80.8297 46.7472 80.3502 46.2077C79.8706 45.6682 79.6309 45.0688 79.6309 44.2895V18.5143C79.6309 17.795 79.9306 17.1356 80.47 16.5962C81.0095 16.0567 81.6689 15.8169 82.4481 15.8169C82.8677 15.8169 83.3473 15.9368 83.7669 16.1166C84.1865 16.3564 84.5461 16.6561 84.7859 16.9558L94.4366 31.8215L104.387 17.0158C104.627 16.6561 104.927 16.3564 105.346 16.1766C105.766 15.9967 106.125 15.8769 106.545 15.8769C107.324 15.8169 107.924 16.0567 108.463 16.5962Z" fill="#161616"/>
<path d="M142.57 39.4344C141.251 41.892 139.453 43.8102 137.175 45.2488C134.897 46.6874 132.32 47.4067 129.443 47.4067C126.565 47.4067 123.988 46.6874 121.71 45.2488C119.432 43.8102 117.634 41.892 116.375 39.4344C115.116 36.9768 114.457 34.3393 114.457 31.4021C114.457 28.4649 115.116 25.7675 116.375 23.3698C117.634 20.9721 119.432 18.9941 121.71 17.5554C123.988 16.1168 126.565 15.4575 129.443 15.4575C132.32 15.4575 134.897 16.1768 137.175 17.5554C139.453 18.9341 141.251 20.9122 142.57 23.3698C143.889 25.8275 144.548 28.4649 144.548 31.4021C144.548 34.3393 143.889 36.9768 142.57 39.4344ZM137.535 26.0073C136.756 24.3889 135.617 23.1301 134.178 22.171C132.739 21.2119 131.181 20.7324 129.383 20.7324C127.584 20.7324 125.966 21.2119 124.587 22.1111C123.209 23.0102 122.07 24.3289 121.29 25.9474C120.511 27.5658 120.092 29.3641 120.092 31.3422C120.092 33.3203 120.451 35.1185 121.29 36.737C122.07 38.3554 123.149 39.6142 124.587 40.5733C125.966 41.5324 127.584 41.952 129.383 41.952C131.181 41.952 132.739 41.4724 134.178 40.5133C135.617 39.5543 136.696 38.2955 137.535 36.677C138.314 35.0586 138.734 33.2603 138.734 31.2822C138.734 29.3041 138.374 27.6257 137.535 26.0073Z" fill="#161616"/>
<path d="M176.257 39.4344C174.939 41.892 173.14 43.8102 170.863 45.2488C168.525 46.6275 165.947 47.3468 163.13 47.3468C160.313 47.3468 157.675 46.6275 155.398 45.1889C153.12 43.7502 151.321 41.8321 150.063 39.3744C148.804 36.9168 148.145 34.2793 148.145 31.3422C148.145 28.405 148.804 25.7076 150.063 23.3099C151.321 20.9122 153.12 18.9341 155.398 17.4955C157.675 16.0569 160.253 15.3975 163.13 15.3975C166.007 15.3975 168.585 16.1168 170.863 17.4955C173.14 18.8742 174.939 20.8523 176.257 23.3099C177.576 25.7675 178.236 28.405 178.236 31.3422C178.236 34.2793 177.516 36.9768 176.257 39.4344ZM171.222 26.0073C170.443 24.3889 169.304 23.1301 167.926 22.171C166.547 21.2119 164.928 20.7324 163.13 20.7324C161.332 20.7324 159.713 21.2119 158.335 22.1111C156.956 23.0102 155.817 24.3289 155.038 25.9474C154.259 27.5658 153.839 29.3641 153.839 31.3422C153.839 33.3203 154.259 35.1185 155.038 36.737C155.817 38.3554 156.896 39.6142 158.335 40.5733C159.713 41.5324 161.332 41.952 163.13 41.952C164.928 41.952 166.487 41.4724 167.926 40.5134C169.364 39.5543 170.443 38.2955 171.222 36.677C172.002 35.0586 172.421 33.2603 172.421 31.2822C172.421 29.3041 172.002 27.6258 171.222 26.0073Z" fill="#161616"/>
<path d="M204.791 16.5363C205.271 17.0159 205.57 17.6153 205.57 18.3945C205.57 19.1738 205.331 19.7732 204.791 20.2527C204.311 20.7323 203.652 20.9721 202.813 20.9721H195.86V44.2297C195.86 45.0089 195.56 45.6683 195.02 46.1478C194.481 46.6274 193.762 46.9271 192.922 46.9271C192.083 46.9271 191.424 46.6873 190.884 46.1478C190.345 45.6084 190.105 45.0089 190.105 44.2297V20.9721H183.152C182.373 20.9721 181.713 20.7323 181.174 20.2527C180.634 19.7732 180.395 19.1738 180.395 18.3945C180.395 17.6153 180.634 17.0758 181.174 16.5963C181.713 16.1167 182.313 15.877 183.092 15.877H202.813C203.592 15.877 204.252 16.1167 204.791 16.5363Z" fill="#161616"/>
<path d="M234.642 16.5963C235.122 17.0758 235.421 17.7352 235.421 18.5744V44.2297C235.421 45.0089 235.181 45.6683 234.642 46.1478C234.103 46.6873 233.443 46.9271 232.604 46.9271C231.885 46.9271 231.225 46.6873 230.686 46.1478C230.146 45.6084 229.907 45.0089 229.907 44.2297V33.8597H215.76V44.1697C215.76 44.949 215.46 45.6084 214.921 46.0879C214.381 46.5674 213.722 46.8671 212.943 46.8671C212.164 46.8671 211.504 46.6274 210.965 46.0879C210.425 45.5484 210.186 44.949 210.186 44.1697V18.5744C210.186 17.7951 210.425 17.1357 210.965 16.6562C211.504 16.1167 212.164 15.877 213.003 15.877C213.722 15.877 214.381 16.1167 214.921 16.6562C215.46 17.1957 215.7 17.7951 215.7 18.5744V28.7646H229.847V18.5744C229.847 17.7951 230.146 17.1357 230.686 16.6562C231.225 16.1167 231.885 15.877 232.664 15.877C233.503 15.877 234.162 16.1167 234.642 16.5963Z" fill="#161616"/>
<path d="M266.531 16.5963C267.01 17.0758 267.31 17.7352 267.31 18.5744V44.2297C267.31 45.0089 267.07 45.6683 266.531 46.1478C265.991 46.6873 265.332 46.9271 264.493 46.9271C263.773 46.9271 263.114 46.6873 262.574 46.1478C262.035 45.6084 261.795 45.0089 261.795 44.2297V33.8597H247.649V44.1697C247.649 44.949 247.349 45.6084 246.81 46.0879C246.27 46.5674 245.611 46.8671 244.832 46.8671C244.052 46.8671 243.393 46.6274 242.853 46.0879C242.314 45.5484 242.074 44.949 242.074 44.1697V18.5744C242.074 17.7951 242.314 17.1357 242.853 16.6562C243.393 16.1167 244.052 15.877 244.891 15.877C245.611 15.877 246.27 16.1167 246.81 16.6562C247.349 17.1957 247.589 17.7951 247.589 18.5744V28.7646H261.735V18.5744C261.735 17.7951 262.035 17.1357 262.574 16.6562C263.114 16.1167 263.773 15.877 264.553 15.877C265.392 15.877 266.051 16.1167 266.531 16.5963Z" fill="#161616"/>
<path d="M20.8912 31.875C24.9677 35.5 26.3265 38 26.3265 41.9375C26.3265 45.5624 24.9059 48.5625 21.6941 51.625C20.15 53.125 19.2235 55.25 19.2235 57.625C19.2235 62.2499 22.9294 66 27.5 66C32.0706 66 35.7765 62.2499 35.7765 57.625C35.7765 55.25 34.8501 53.125 33.3059 51.625C30.1559 48.5625 28.6735 45.5624 28.6735 41.9375C28.6735 38 30.0324 35.5625 34.1088 31.875C36.4559 29.9375 38 26.9375 38 23.625C38 17.75 33.3059 13 27.5 13C21.6941 13 17 17.75 17 23.625C17 26.9375 18.5442 29.875 20.8912 31.875Z" fill="url(#paint0_linear_656_2687)"/>
<path d="M17.2941 34.125C13.4117 30.4999 12.1176 28 12.1176 24.0625C12.1176 20.4375 13.4706 17.4375 16.4705 14.375C17.9412 12.875 18.8235 10.75 18.8235 8.375C18.8824 3.75 15.3529 0 11 0C6.64705 0 3.05882 3.75 3.05882 8.375C3.05882 10.75 4 12.8125 5.41177 14.375C8.41176 17.4375 9.76471 20.4375 9.76471 24.0625C9.76471 28 8.47059 30.4375 4.58823 34.125C2.41177 36.0625 1 39 1 42.375C1 48.25 5.47059 53 11 53C16.5294 53 21 48.25 21 42.375C20.9412 39 19.5294 36.0625 17.2941 34.125Z" fill="url(#paint1_linear_656_2687)"/>
<defs>
<linearGradient id="paint0_linear_656_2687" x1="27.5" y1="13" x2="27.5" y2="66" gradientUnits="userSpaceOnUse">
<stop stop-color="#1F97D4"/>
<stop offset="1" stop-color="#8117EE"/>
</linearGradient>
<linearGradient id="paint1_linear_656_2687" x1="11" y1="5.87141" x2="11" y2="45.0526" gradientUnits="userSpaceOnUse">
<stop stop-color="#1F97D4"/>
<stop offset="1" stop-color="#8117EE"/>
</linearGradient>
</defs>
</svg>
